<svg version="1.1" viewBox="0.0 0.0 679.6351706036745 229.85826771653544" fill="none" stroke="none" stroke-linecap="square" stroke-miterlimit="10" xmlns:xlink="http://www.w3.org/1999/xlink" xmlns="http://www.w3.org/2000/svg"><clipPath id="p.0"><path d="m0 0l679.6352 0l0 229.85826l-679.6352 0l0 -229.85826z" clip-rule="nonzero"/></clipPath><g clip-path="url(#p.0)"><path fill="#ffffff" d="m0 0l679.6352 0l0 229.85826l-679.6352 0z" fill-rule="evenodd"/><path fill="#000000" d="m488.46957 274.3025l0 0c0 -8.593018 6.966034 -15.5590515 15.5590515 -15.5590515l0 0c4.126526 0 8.084045 1.6392517 11.001892 4.5571594c2.9179077 2.9178772 4.55719 6.8753967 4.55719 11.001892l0 0c0 8.593048 -6.9660645 15.559082 -15.559082 15.559082l0 0c-8.593018 0 -15.5590515 -6.966034 -15.5590515 -15.559082z" fill-rule="evenodd"/><path fill="#000000" fill-opacity="0.0" d="m488.07324 258.74316l32.125977 0l0 31.118103l-32.125977 0z" fill-rule="evenodd"/><path fill="#ffffff" d="m505.589 267.98782l0 13.234375l-1.578125 0l0 -9.46875l-3.4375 0l0 -1.28125l0.046875 0q1.6875 0 2.59375 -0.59375q0.921875 -0.609375 1.15625 -1.890625l1.21875 0z" fill-rule="nonzero"/><path fill="#000000" fill-opacity="0.0" d="m22.032795 25.750656l169.95276 0l0 31.464565l-169.95276 0z" fill-rule="evenodd"/><path fill="#000000" d="m53.59345 35.09044l3.984375 6.328125l3.890625 -6.328125l2.015625 0l-5.09375 7.859375l0 5.453125l-1.765625 0l0 -5.453125l-5.15625 -7.859375l2.125 0zm13.350025 3.453125q2.1875 0 3.421875 1.40625q1.25 1.40625 1.25 3.640625q0 2.25 -1.28125 3.65625q-1.265625 1.390625 -3.390625 1.390625q-2.09375 0 -3.3906288 -1.375q-1.296875 -1.375 -1.296875 -3.671875q0 -2.296875 1.265625 -3.671875q1.2656288 -1.375 3.4218788 -1.375zm-3.0156288 5.046875q0 1.65625 0.8437538 2.65625q0.859375 0.984375 2.171875 0.984375q1.296875 0 2.140625 -0.984375q0.859375 -1.0 0.859375 -2.65625q0 -1.640625 -0.84375 -2.640625q-0.84375 -1.015625 -2.171875 -1.015625q-1.28125 0 -2.140625 0.984375q-0.8593788 0.984375 -0.8593788 2.671875zm11.150272 -4.828125l0 6.578125q0 0.8125 0.515625 1.359375q0.53125 0.53125 1.453125 0.53125q1.359375 0 2.09375 -0.828125q0.75 -0.84375 0.75 -2.140625l0 -5.5l1.59375 0l0 9.640625l-1.5 0l0 -1.53125l-0.03125 0q-0.53125 0.921875 -1.328125 1.34375q-0.796875 0.421875 -1.8125 0.421875q-1.6875 0 -2.515625 -0.875q-0.8125 -0.875 -0.8125 -2.578125l0 -6.421875l1.59375 0zm13.594467 -0.234375q0.046875 0 0.09375 0q0.046875 0 0.125 0.015625l0 1.671875q-1.796875 0 -2.65625 0.953125q-0.84375 0.9375 -0.84375 2.921875l0 4.3125l-1.578125 0l0 -9.640625l1.484375 0l0 2.03125l0.046875 0q0.546875 -1.15625 1.359375 -1.703125q0.828125 -0.5625 1.96875 -0.5625zm9.802231 0.015625q1.9375 0 2.890625 0.75q0.953125 0.75 1.03125 2.265625l-1.578125 0l0 -0.03125q-0.0625 -0.765625 -0.671875 -1.171875q-0.609375 -0.421875 -1.5625 -0.421875q-0.953125 0 -1.515625 0.328125q-0.546875 0.3125 -0.546875 0.90625q0 0.515625 0.484375 0.859375q0.5 0.328125 1.484375 0.546875l1.484375 0.328125q1.40625 0.3125 2.125 0.953125q0.734375 0.640625 0.734375 1.734375q0 1.421875 -1.109375 2.234375q-1.09375 0.8125 -2.984375 0.8125q-1.859375 0 -2.953125 -0.828125q-1.078125 -0.84375 -1.140625 -2.453125l1.59375 0q0.03125 0.90625 0.703125 1.390625q0.6875 0.484375 1.875 0.484375q1.15625 0 1.75 -0.359375q0.59375 -0.375 0.59375 -1.078125q0 -0.65625 -0.59375 -1.03125q-0.59375 -0.375 -2.40625 -0.734375q-1.828125 -0.359375 -2.578125 -1.015625q-0.734375 -0.65625 -0.734375 -1.734375q0 -1.265625 1.03125 -2.0q1.03125 -0.734375 2.59375 -0.734375zm10.125 0q2.078125 0 3.21875 1.5q1.15625 1.484375 1.15625 3.828125l0 0.1875l-7.234375 0l0 0.109375q0 1.390625 0.796875 2.234375q0.8125 0.828125 2.21875 0.828125q1.046875 0 1.671875 -0.484375q0.625 -0.5 0.828125 -1.40625l1.5625 0q-0.328125 1.609375 -1.40625 2.453125q-1.078125 0.84375 -2.71875 0.84375q-1.515625 0 -2.578125 -0.6875q-1.046875 -0.6875 -1.546875 -1.90625q-0.5 -1.234375 -0.5 -2.515625q0 -2.140625 1.28125 -3.5625q1.296875 -1.421875 3.25 -1.421875zm-2.859375 4.109375l5.546875 0q-0.078125 -1.171875 -0.859375 -1.9375q-0.765625 -0.78125 -1.9375 -0.78125q-1.09375 0 -1.875 0.734375q-0.765625 0.734375 -0.875 1.984375zm13.676697 -4.125q0.046875 0 0.09375 0q0.046875 0 0.125 0.015625l0 1.671875q-1.796875 0 -2.65625 0.953125q-0.84375 0.9375 -0.84375 2.921875l0 4.3125l-1.578125 0l0 -9.640625l1.484375 0l0 2.03125l0.046875 0q0.546875 -1.15625 1.359375 -1.703125q0.828125 -0.5625 1.96875 -0.5625zm2.353302 0.234375l2.703125 8.03125l0.03125 0l2.640625 -8.03125l1.6562424 0l-3.5312424 9.640625l-1.6875 0l-3.578125 -9.640625l1.765625 0zm10.171867 -3.671875l0 1.9375l-1.59375 0l0 -1.9375l1.59375 0zm0 3.671875l0 9.640625l-1.59375 0l0 -9.640625l1.59375 0zm6.488571 -0.21875q1.765625 0 2.859375 0.84375q1.109375 0.828125 1.296875 2.46875l-1.625 0q-0.203125 -0.9375 -0.828125 -1.421875q-0.625 -0.5 -1.5625 -0.5q-1.484375 0 -2.25 0.984375q-0.765625 0.984375 -0.765625 2.78125q0 1.609375 0.75 2.578125q0.765625 0.953125 2.078125 0.953125q1.15625 0 1.8125 -0.625q0.671875 -0.625 0.828125 -1.734375l1.625 0q-0.265625 1.8125 -1.359375 2.796875q-1.09375 0.96875 -2.890625 0.96875q-2.109375 0 -3.3125 -1.328125q-1.203125 -1.328125 -1.203125 -3.609375q0 -2.359375 1.21875 -3.75q1.21875 -1.40625 3.328125 -1.40625zm10.004822 0q2.078125 0 3.21875 1.5q1.15625 1.484375 1.15625 3.828125l0 0.1875l-7.234375 0l0 0.109375q0 1.390625 0.796875 2.234375q0.8125 0.828125 2.21875 0.828125q1.046875 0 1.671875 -0.484375q0.625 -0.5 0.828125 -1.40625l1.5625 0q-0.328125 1.609375 -1.40625 2.453125q-1.078125 0.84375 -2.71875 0.84375q-1.515625 0 -2.578125 -0.6875q-1.046875 -0.6875 -1.546875 -1.90625q-0.5 -1.234375 -0.5 -2.515625q0 -2.140625 1.28125 -3.5625q1.296875 -1.421875 3.25 -1.421875zm-2.859375 4.109375l5.546875 0q-0.078125 -1.171875 -0.859375 -1.9375q-0.765625 -0.78125 -1.9375 -0.78125q-1.09375 0 -1.875 0.734375q-0.765625 0.734375 -0.875 1.984375zm12.082947 -4.109375q1.9375 0 2.890625 0.75q0.953125 0.75 1.03125 2.265625l-1.578125 0l0 -0.03125q-0.0625 -0.765625 -0.671875 -1.171875q-0.609375 -0.421875 -1.5625 -0.421875q-0.953125 0 -1.515625 0.328125q-0.546875 0.3125 -0.546875 0.90625q0 0.515625 0.484375 0.859375q0.5 0.328125 1.484375 0.546875l1.484375 0.328125q1.40625 0.3125 2.125 0.953125q0.734375 0.640625 0.734375 1.734375q0 1.421875 -1.109375 2.234375q-1.09375 0.8125 -2.984375 0.8125q-1.859375 0 -2.953125 -0.828125q-1.078125 -0.84375 -1.140625 -2.453125l1.59375 0q0.03125 0.90625 0.703125 1.390625q0.6875 0.484375 1.875 0.484375q1.15625 0 1.75 -0.359375q0.59375 -0.375 0.59375 -1.078125q0 -0.65625 -0.59375 -1.03125q-0.59375 -0.375 -2.40625 -0.734375q-1.828125 -0.359375 -2.578125 -1.015625q-0.734375 -0.65625 -0.734375 -1.734375q0 -1.265625 1.03125 -2.0q1.03125 -0.734375 2.59375 -0.734375z" fill-rule="nonzero"/><path fill="#000000" fill-opacity="0.0" d="m361.2664 259.64285l78.99213 0" fill-rule="evenodd"/><path stroke="#000000" stroke-width="2.0" stroke-linejoin="round" stroke-linecap="butt" d="m361.26642 259.64285l66.99213 0" fill-rule="evenodd"/><path fill="#000000" stroke="#000000" stroke-width="2.0" stroke-linecap="butt" d="m428.25854 262.94632l9.076172 -3.3034668l-9.076172 -3.3034668z" fill-rule="evenodd"/><path fill="#000000" fill-opacity="0.0" d="m364.6929 256.86877l60.283478 0l0 34.86612l-60.283478 0z" fill-rule="evenodd"/><path fill="#000000" d="m383.53174 270.47626l0 10.046875q0 1.578125 -1.0 2.578125q-0.984375 1.0 -2.921875 1.0q-1.796875 0 -2.84375 -0.9375q-1.046875 -0.953125 -1.046875 -3.296875l0 -0.453125l1.78125 0l0 0.40625q0 1.640625 0.53125 2.21875q0.53125 0.578125 1.609375 0.578125q1.09375 0 1.609375 -0.578125q0.515625 -0.578125 0.515625 -1.75l0 -9.8125l1.765625 0zm3.4959106 0l2.609375 11.078125l0.046875 0l2.984375 -11.078125l1.921875 0l2.9375 11.078125l0.046875 0l2.703125 -11.078125l1.765625 0l-3.5625 13.3125l-1.84375 0l-3.046875 -11.203125l-0.03125 0l-3.078125 11.203125l-1.84375 0l-3.40625 -13.3125l1.796875 0zm21.177856 -0.328125q2.21875 0 3.515625 1.078125q1.3125 1.078125 1.390625 3.140625l-1.671875 0q-0.15625 -1.359375 -1.0 -2.03125q-0.828125 -0.6875 -2.3125 -0.6875q-1.421875 0 -2.203125 0.59375q-0.78125 0.578125 -0.78125 1.671875q0 0.78125 0.65625 1.28125q0.671875 0.5 3.625 1.09375q2.125 0.4375 3.171875 1.34375q1.0625 0.90625 1.0625 2.5q0 1.859375 -1.515625 2.921875q-1.515625 1.046875 -3.6875 1.046875q-2.421875 0 -3.953125 -1.203125q-1.53125 -1.21875 -1.546875 -3.484375l1.6875 0q0.015625 1.515625 1.078125 2.359375q1.078125 0.84375 2.796875 0.84375q1.609375 0 2.484375 -0.625q0.890625 -0.625 0.890625 -1.796875q0 -0.953125 -0.8125 -1.515625q-0.8125 -0.578125 -2.9375 -1.0q-2.84375 -0.53125 -3.8125 -1.375q-0.953125 -0.859375 -0.953125 -2.25q0 -1.796875 1.359375 -2.84375q1.359375 -1.0625 3.46875 -1.0625z" fill-rule="nonzero"/><path fill="#000000" fill-opacity="0.0" d="m254.84119 25.750656l169.95276 0l0 31.464565l-169.95276 0z" fill-rule="evenodd"/><path fill="#000000" d="m270.7023 24.090439l3.984375 6.328125l3.890625 -6.328125l2.015625 0l-5.09375 7.859375l0 5.453125l-1.765625 0l0 -5.453125l-5.15625 -7.859375l2.125 0zm13.350037 3.453125q2.1875 0 3.421875 1.40625q1.25 1.40625 1.25 3.640625q0 2.25 -1.28125 3.65625q-1.265625 1.390625 -3.390625 1.390625q-2.09375 0 -3.390625 -1.375q-1.296875 -1.375 -1.296875 -3.671875q0 -2.296875 1.265625 -3.671875q1.265625 -1.375 3.421875 -1.375zm-3.015625 5.046875q0 1.65625 0.84375 2.65625q0.859375 0.984375 2.171875 0.984375q1.296875 0 2.140625 -0.984375q0.859375 -1.0 0.859375 -2.65625q0 -1.640625 -0.84375 -2.640625q-0.84375 -1.015625 -2.171875 -1.015625q-1.28125 0 -2.140625 0.984375q-0.859375 0.984375 -0.859375 2.671875zm11.150269 -4.828125l0 6.578125q0 0.8125 0.515625 1.359375q0.53125 0.53125 1.453125 0.53125q1.359375 0 2.09375 -0.828125q0.75 -0.84375 0.75 -2.140625l0 -5.5l1.59375 0l0 9.640625l-1.5 0l0 -1.53125l-0.03125 0q-0.53125 0.921875 -1.328125 1.34375q-0.796875 0.421875 -1.8125 0.421875q-1.6875 0 -2.515625 -0.875q-0.8125 -0.875 -0.8125 -2.578125l0 -6.421875l1.59375 0zm13.594452 -0.234375q0.046875 0 0.09375 0q0.046875 0 0.125 0.015625l0 1.671875q-1.796875 0 -2.65625 0.953125q-0.84375 0.9375 -0.84375 2.921875l0 4.3125l-1.578125 0l0 -9.640625l1.484375 0l0 2.03125l0.046875 0q0.546875 -1.15625 1.359375 -1.703125q0.828125 -0.5625 1.96875 -0.5625zm12.552246 -3.765625q2.359375 0 3.859375 1.140625q1.515625 1.125 1.859375 3.28125l-1.765625 0q-0.265625 -1.40625 -1.3125 -2.15625q-1.03125 -0.765625 -2.65625 -0.765625q-2.125 0 -3.34375 1.578125q-1.21875 1.578125 -1.21875 4.0625q0 2.296875 1.25 3.8125q1.265625 1.515625 3.3125 1.515625q1.921875 0 3.09375 -1.15625q1.1875 -1.15625 1.1875 -2.984375l0 -0.203125l-4.265625 0l0 -1.5l5.84375 0l0 7.015625l-1.109375 0l-0.46875 -1.65625q-0.734375 0.953125 -1.859375 1.46875q-1.125 0.5 -2.421875 0.5q-2.71875 0 -4.53125 -1.953125q-1.8125 -1.953125 -1.8125 -4.765625q0 -3.15625 1.703125 -5.1875q1.71875 -2.046875 4.65625 -2.046875zm14.093658 0q1.9375 0 3.375 0.90625q1.4375 0.890625 2.21875 2.515625q0.78125 1.625 0.78125 3.5625q0 1.953125 -0.78125 3.578125q-0.765625 1.609375 -2.21875 2.5q-1.453125 0.890625 -3.375 0.890625q-1.921875 0 -3.375 -0.890625q-1.4375 -0.890625 -2.234375 -2.5q-0.78125 -1.625 -0.78125 -3.578125q0 -3.03125 1.734375 -5.0q1.75 -1.984375 4.65625 -1.984375zm-4.609375 6.984375q0 1.484375 0.53125 2.765625q0.546875 1.28125 1.59375 2.0q1.0625 0.71875 2.484375 0.71875q2.140625 0 3.375 -1.546875q1.234375 -1.546875 1.234375 -3.9375q0 -2.375 -1.234375 -3.921875q-1.21875 -1.5625 -3.40625 -1.5625q-2.140625 0 -3.359375 1.5625q-1.21875 1.5625 -1.21875 3.921875zm13.368378 -6.65625l3.8125 11.53125l0.03125 0l3.84375 -11.53125l1.84375 0l-4.734375 13.3125l-2.015625 0l-4.703125 -13.3125l1.921875 0zm11.531403 11.25l0 2.0625l-2.0625 0l0 -2.0625l2.0625 0zm4.730194 -11.25l0 8.578125q0 1.625 0.921875 2.59375q0.9375 0.96875 2.765625 0.96875q1.734375 0 2.609375 -0.953125q0.875 -0.96875 0.875 -2.609375l0 -8.578125l1.765625 0l0 8.59375q0 2.34375 -1.328125 3.6875q-1.3125 1.34375 -3.921875 1.34375q-2.71875 0 -4.09375 -1.3125q-1.359375 -1.3125 -1.359375 -3.71875l0 -8.59375l1.765625 0zm13.535431 0l0 6.640625l6.765625 -6.640625l2.296875 0l-5.625 5.375l5.84375 7.9375l-2.25 0l-4.796875 -6.734375l-2.234375 2.0625l0 4.671875l-1.765625 0l0 -13.3125l1.765625 0z" fill-rule="nonzero"/><path fill="#000000" d="m392.7665 24.090439q1.828125 0 2.90625 1.0q1.09375 0.984375 1.09375 2.9375q0 1.953125 -1.09375 2.9375q-1.078125 0.984375 -2.78125 0.984375l-4.28125 0l0 5.453125l-1.765625 0l0 -13.3125l5.921875 0zm-0.484375 6.375q1.265625 0 1.984375 -0.59375q0.734375 -0.609375 0.734375 -1.84375q0 -1.234375 -0.71875 -1.84375q-0.71875 -0.609375 -2.109375 -0.609375l-3.5625 0l0 4.890625l3.671875 0zm9.782318 -2.921875q1.96875 0 2.78125 0.703125q0.828125 0.6875 0.828125 1.875q0 5.015625 0 5.5625q0 0.546875 0.5 0.546875q0.109375 0 0.234375 -0.03125q0.140625 -0.03125 0.25 -0.0625l0 1.234375q-0.21875 0.125 -0.5 0.1875q-0.28125 0.078125 -0.625 0.078125q-0.65625 0 -1.0 -0.375q-0.34375 -0.375 -0.34375 -1.125q-0.640625 0.75 -1.5 1.125q-0.84375 0.375 -1.90625 0.375q-1.484375 0 -2.34375 -0.703125q-0.84375 -0.71875 -0.84375 -2.015625q0 -1.296875 0.828125 -2.046875q0.828125 -0.765625 3.90625 -1.15625q1.03125 -0.140625 1.390625 -0.390625q0.375 -0.265625 0.375 -0.796875q0 -0.796875 -0.515625 -1.1875q-0.5 -0.40625 -1.625 -0.40625q-1.171875 0 -1.765625 0.453125q-0.59375 0.4375 -0.640625 1.375l-1.578125 0q0.078125 -1.609375 1.125 -2.40625q1.0625 -0.8125 2.96875 -0.8125zm-2.796875 7.265625q0 0.671875 0.484375 1.046875q0.5 0.375 1.390625 0.375q1.34375 0 2.140625 -0.65625q0.796875 -0.671875 0.796875 -1.5l0 -1.65625q-0.390625 0.28125 -1.03125 0.390625q-0.640625 0.09375 -1.703125 0.234375q-1.046875 0.15625 -1.5625 0.578125q-0.515625 0.421875 -0.515625 1.1875zm9.614197 -7.046875l2.8125 7.875l0.046875 0l2.703125 -7.875l1.6875 0l-4.109375 10.671875q-0.640625 1.671875 -1.234375 2.25q-0.59375 0.578125 -1.65625 0.578125q-0.296875 0 -0.578125 -0.03125q-0.265625 -0.03125 -0.53125 -0.125l0 -1.46875q0.234375 0.078125 0.46875 0.140625q0.234375 0.078125 0.46875 0.078125q0.96875 0 1.34375 -0.96875q0.390625 -0.953125 0.609375 -1.53125l-3.828125 -9.59375l1.796875 0z" fill-rule="nonzero"/><path fill="#000000" d="m306.59354 49.543564q1.96875 0 2.78125 0.703125q0.828125 0.6875 0.828125 1.875q0 5.015625 0 5.5625q0 0.546875 0.5 0.546875q0.109375 0 0.234375 -0.03125q0.140625 -0.03125 0.25 -0.0625l0 1.234375q-0.21875 0.125 -0.5 0.1875q-0.28125 0.078125 -0.625 0.078125q-0.65625 0 -1.0 -0.375q-0.34375 -0.375 -0.34375 -1.125q-0.640625 0.75 -1.5 1.125q-0.84375 0.375 -1.90625 0.375q-1.484375 0 -2.34375 -0.703125q-0.84375 -0.71875 -0.84375 -2.015625q0 -1.296875 0.828125 -2.046875q0.828125 -0.765625 3.90625 -1.15625q1.03125 -0.140625 1.390625 -0.390625q0.375 -0.265625 0.375 -0.796875q0 -0.796875 -0.515625 -1.1875q-0.5 -0.40625 -1.625 -0.40625q-1.171875 0 -1.765625 0.453125q-0.59375 0.4375 -0.640625 1.375l-1.578125 0q0.078125 -1.609375 1.125 -2.40625q1.0625 -0.8125 2.96875 -0.8125zm-2.796875 7.265625q0 0.671875 0.484375 1.046875q0.5 0.375 1.390625 0.375q1.34375 0 2.140625 -0.65625q0.796875 -0.671875 0.796875 -1.5l0 -1.65625q-0.390625 0.28125 -1.03125 0.390625q-0.640625 0.09375 -1.703125 0.234375q-1.046875 0.15625 -1.5625 0.578125q-0.515625 0.421875 -0.515625 1.1875zm12.895447 -7.265625q1.765625 0 2.859375 0.84375q1.109375 0.828125 1.296875 2.46875l-1.625 0q-0.203125 -0.9375 -0.828125 -1.421875q-0.625 -0.5 -1.5625 -0.5q-1.484375 0 -2.25 0.984375q-0.765625 0.984375 -0.765625 2.78125q0 1.609375 0.75 2.578125q0.765625 0.953125 2.078125 0.953125q1.15625 0 1.8125 -0.625q0.671875 -0.625 0.828125 -1.734375l1.625 0q-0.265625 1.8125 -1.359375 2.796875q-1.09375 0.96875 -2.890625 0.96875q-2.109375 0 -3.3125 -1.328125q-1.203125 -1.328125 -1.203125 -3.609375q0 -2.359375 1.21875 -3.75q1.21875 -1.40625 3.328125 -1.40625zm10.020447 0q1.765625 0 2.859375 0.84375q1.109375 0.828125 1.296875 2.46875l-1.625 0q-0.203125 -0.9375 -0.828125 -1.421875q-0.625 -0.5 -1.5625 -0.5q-1.484375 0 -2.25 0.984375q-0.765625 0.984375 -0.765625 2.78125q0 1.609375 0.75 2.578125q0.765625 0.953125 2.078125 0.953125q1.15625 0 1.8125 -0.625q0.671875 -0.625 0.828125 -1.734375l1.625 0q-0.265625 1.8125 -1.359375 2.796875q-1.09375 0.96875 -2.890625 0.96875q-2.109375 0 -3.3125 -1.328125q-1.203125 -1.328125 -1.203125 -3.609375q0 -2.359375 1.21875 -3.75q1.21875 -1.40625 3.328125 -1.40625zm10.161072 0q2.1875 0 3.421875 1.40625q1.25 1.40625 1.25 3.640625q0 2.25 -1.28125 3.65625q-1.265625 1.390625 -3.390625 1.390625q-2.09375 0 -3.390625 -1.375q-1.296875 -1.375 -1.296875 -3.671875q0 -2.296875 1.265625 -3.671875q1.265625 -1.375 3.421875 -1.375zm-3.015625 5.046875q0 1.65625 0.84375 2.65625q0.859375 0.984375 2.171875 0.984375q1.296875 0 2.140625 -0.984375q0.859375 -1.0 0.859375 -2.65625q0 -1.640625 -0.84375 -2.640625q-0.84375 -1.015625 -2.171875 -1.015625q-1.28125 0 -2.140625 0.984375q-0.859375 0.984375 -0.859375 2.671875zm11.150269 -4.828125l0 6.578125q0 0.8125 0.515625 1.359375q0.53125 0.53125 1.453125 0.53125q1.359375 0 2.09375 -0.828125q0.75 -0.84375 0.75 -2.140625l0 -5.5l1.59375 0l0 9.640625l-1.5 0l0 -1.53125l-0.03125 0q-0.53125 0.921875 -1.328125 1.34375q-0.796875 0.421875 -1.8125 0.421875q-1.6875 0 -2.515625 -0.875q-0.8125 -0.875 -0.8125 -2.578125l0 -6.421875l1.59375 0zm13.453857 -0.21875q1.75 0 2.53125 0.890625q0.796875 0.890625 0.796875 2.546875l0 6.421875l-1.59375 0l0 -6.59375q0 -0.8125 -0.53125 -1.34375q-0.515625 -0.53125 -1.4375 -0.53125q-1.34375 0 -2.09375 0.828125q-0.75 0.8125 -0.75 2.125l0 5.515625l-1.59375 0l0 -9.640625l1.5 0l0 1.53125l0.03125 0q0.53125 -0.90625 1.296875 -1.328125q0.78125 -0.421875 1.84375 -0.421875zm7.906952 -2.671875l0 2.890625l1.921875 0l0 1.390625l-1.921875 0l0 6.046875q0 0.71875 0.484375 0.765625q0.484375 0.03125 1.0 0.03125l0.4375 0l0 1.40625l-1.296875 0q-1.3125 0 -1.765625 -0.453125q-0.4375 -0.46875 -0.4375 -1.5625l0 -6.234375l-1.65625 0l0 -1.390625l1.65625 0l0 -2.890625l1.578125 0zm6.891266 2.671875q1.9375 0 2.890625 0.75q0.953125 0.75 1.03125 2.265625l-1.578125 0l0 -0.03125q-0.0625 -0.765625 -0.671875 -1.171875q-0.609375 -0.421875 -1.5625 -0.421875q-0.953125 0 -1.515625 0.328125q-0.546875 0.3125 -0.546875 0.90625q0 0.515625 0.484375 0.859375q0.5 0.328125 1.484375 0.546875l1.484375 0.328125q1.40625 0.3125 2.125 0.953125q0.734375 0.640625 0.734375 1.734375q0 1.421875 -1.109375 2.234375q-1.09375 0.8125 -2.984375 0.8125q-1.859375 0 -2.953125 -0.828125q-1.078125 -0.84375 -1.140625 -2.453125l1.59375 0q0.03125 0.90625 0.703125 1.390625q0.6875 0.484375 1.875 0.484375q1.15625 0 1.75 -0.359375q0.59375 -0.375 0.59375 -1.078125q0 -0.65625 -0.59375 -1.03125q-0.59375 -0.375 -2.40625 -0.734375q-1.828125 -0.359375 -2.578125 -1.015625q-0.734375 -0.65625 -0.734375 -1.734375q0 -1.265625 1.03125 -2.0q1.03125 -0.734375 2.59375 -0.734375z" fill-rule="nonzero"/><path fill="#000000" fill-opacity="0.0" d="m487.6496 25.750656l169.95276 0l0 31.464565l-169.95276 0z" fill-rule="evenodd"/><path fill="#000000" d="m501.6335 35.09044l3.984375 6.328125l3.890625 -6.328125l2.015625 0l-5.09375 7.859375l0 5.453125l-1.765625 0l0 -5.453125l-5.15625 -7.859375l2.125 0zm13.350006 3.453125q2.1875 0 3.421875 1.40625q1.25 1.40625 1.25 3.640625q0 2.25 -1.28125 3.65625q-1.265625 1.390625 -3.390625 1.390625q-2.09375 0 -3.390625 -1.375q-1.296875 -1.375 -1.296875 -3.671875q0 -2.296875 1.265625 -3.671875q1.265625 -1.375 3.421875 -1.375zm-3.015625 5.046875q0 1.65625 0.84375 2.65625q0.859375 0.984375 2.171875 0.984375q1.296875 0 2.140625 -0.984375q0.859375 -1.0 0.859375 -2.65625q0 -1.640625 -0.84375 -2.640625q-0.84375 -1.015625 -2.171875 -1.015625q-1.28125 0 -2.140625 0.984375q-0.859375 0.984375 -0.859375 2.671875zm11.150269 -4.828125l0 6.578125q0 0.8125 0.515625 1.359375q0.53125 0.53125 1.453125 0.53125q1.359375 0 2.09375 -0.828125q0.75 -0.84375 0.75 -2.140625l0 -5.5l1.59375 0l0 9.640625l-1.5 0l0 -1.53125l-0.03125 0q-0.53125 0.921875 -1.328125 1.34375q-0.796875 0.421875 -1.8125 0.421875q-1.6875 0 -2.515625 -0.875q-0.8125 -0.875 -0.8125 -2.578125l0 -6.421875l1.59375 0zm13.594482 -0.234375q0.046875 0 0.09375 0q0.046875 0 0.125 0.015625l0 1.671875q-1.796875 0 -2.65625 0.953125q-0.84375 0.9375 -0.84375 2.921875l0 4.3125l-1.578125 0l0 -9.640625l1.484375 0l0 2.03125l0.046875 0q0.546875 -1.15625 1.359375 -1.703125q0.828125 -0.5625 1.96875 -0.5625zm12.770996 -3.4375q1.828125 0 2.90625 1.0q1.09375 0.984375 1.09375 2.9375q0 1.953125 -1.09375 2.9375q-1.078125 0.984375 -2.78125 0.984375l-4.28125 0l0 5.453125l-1.765625 0l0 -13.3125l5.921875 0zm-0.484375 6.375q1.265625 0 1.984375 -0.59375q0.734375 -0.609375 0.734375 -1.84375q0 -1.234375 -0.71875 -1.84375q-0.71875 -0.609375 -2.109375 -0.609375l-3.5625 0l0 4.890625l3.671875 0zm11.135132 -6.703125q2.21875 0 3.515625 1.078125q1.3125 1.078125 1.390625 3.140625l-1.671875 0q-0.15625 -1.359375 -1.0 -2.03125q-0.828125 -0.6875 -2.3125 -0.6875q-1.421875 0 -2.203125 0.59375q-0.78125 0.578125 -0.78125 1.671875q0 0.78125 0.65625 1.28125q0.671875 0.5 3.625 1.09375q2.125 0.4375 3.171875 1.34375q1.0625 0.90625 1.0625 2.5q0 1.859375 -1.515625 2.921875q-1.515625 1.046875 -3.6875 1.046875q-2.421875 0 -3.953125 -1.203125q-1.53125 -1.21875 -1.546875 -3.484375l1.6875 0q0.015625 1.515625 1.078125 2.359375q1.078125 0.84375 2.796875 0.84375q1.609375 0 2.484375 -0.625q0.890625 -0.625 0.890625 -1.796875q0 -0.953125 -0.8125 -1.515625q-0.8125 -0.578125 -2.9375 -1.0q-2.84375 -0.53125 -3.8125 -1.375q-0.953125 -0.859375 -0.953125 -2.25q0 -1.796875 1.359375 -2.84375q1.359375 -1.0625 3.46875 -1.0625zm13.525818 0.328125q1.828125 0 2.90625 1.0q1.09375 0.984375 1.09375 2.9375q0 1.953125 -1.09375 2.9375q-1.078125 0.984375 -2.78125 0.984375l-4.28125 0l0 5.453125l-1.765625 0l0 -13.3125l5.921875 0zm-0.484375 6.375q1.265625 0 1.984375 -0.59375q0.734375 -0.609375 0.734375 -1.84375q0 -1.234375 -0.71875 -1.84375q-0.71875 -0.609375 -2.109375 -0.609375l-3.5625 0l0 4.890625l3.671875 0z" fill-rule="nonzero"/><path fill="#000000" d="m588.69745 38.543564q1.96875 0 2.78125 0.703125q0.828125 0.6875 0.828125 1.875q0 5.015625 0 5.5625q0 0.546875 0.5 0.546875q0.109375 0 0.234375 -0.03125q0.140625 -0.03125 0.25 -0.0625l0 1.234375q-0.21875 0.125 -0.5 0.1875q-0.28125 0.078125 -0.625 0.078125q-0.65625 0 -1.0 -0.375q-0.34375 -0.375 -0.34375 -1.125q-0.640625 0.75 -1.5 1.125q-0.84375 0.375 -1.90625 0.375q-1.484375 0 -2.34375 -0.703125q-0.84375 -0.71875 -0.84375 -2.015625q0 -1.296875 0.828125 -2.046875q0.828125 -0.765625 3.90625 -1.15625q1.03125 -0.140625 1.390625 -0.390625q0.375 -0.265625 0.375 -0.796875q0 -0.796875 -0.515625 -1.1875q-0.5 -0.40625 -1.625 -0.40625q-1.171875 0 -1.765625 0.453125q-0.59375 0.4375 -0.640625 1.375l-1.578125 0q0.078125 -1.609375 1.125 -2.40625q1.0625 -0.8125 2.96875 -0.8125zm-2.796875 7.265625q0 0.671875 0.484375 1.046875q0.5 0.375 1.390625 0.375q1.34375 0 2.140625 -0.65625q0.796875 -0.671875 0.796875 -1.5l0 -1.65625q-0.390625 0.28125 -1.03125 0.390625q-0.640625 0.09375 -1.703125 0.234375q-1.046875 0.15625 -1.5625 0.578125q-0.515625 0.421875 -0.515625 1.1875zm12.895447 -7.265625q1.765625 0 2.859375 0.84375q1.109375 0.828125 1.296875 2.46875l-1.625 0q-0.203125 -0.9375 -0.828125 -1.421875q-0.625 -0.5 -1.5625 -0.5q-1.484375 0 -2.25 0.984375q-0.765625 0.984375 -0.765625 2.78125q0 1.609375 0.75 2.578125q0.765625 0.953125 2.078125 0.953125q1.15625 0 1.8125 -0.625q0.671875 -0.625 0.828125 -1.734375l1.625 0q-0.265625 1.8125 -1.359375 2.796875q-1.09375 0.96875 -2.890625 0.96875q-2.109375 0 -3.3125 -1.328125q-1.203125 -1.328125 -1.203125 -3.609375q0 -2.359375 1.21875 -3.75q1.21875 -1.40625 3.328125 -1.40625zm10.020447 0q1.765625 0 2.859375 0.84375q1.109375 0.828125 1.296875 2.46875l-1.625 0q-0.203125 -0.9375 -0.828125 -1.421875q-0.625 -0.5 -1.5625 -0.5q-1.484375 0 -2.25 0.984375q-0.765625 0.984375 -0.765625 2.78125q0 1.609375 0.75 2.578125q0.765625 0.953125 2.078125 0.953125q1.15625 0 1.8125 -0.625q0.671875 -0.625 0.828125 -1.734375l1.625 0q-0.265625 1.8125 -1.359375 2.796875q-1.09375 0.96875 -2.890625 0.96875q-2.109375 0 -3.3125 -1.328125q-1.203125 -1.328125 -1.203125 -3.609375q0 -2.359375 1.21875 -3.75q1.21875 -1.40625 3.328125 -1.40625zm10.161072 0q2.1875 0 3.421875 1.40625q1.25 1.40625 1.25 3.640625q0 2.25 -1.28125 3.65625q-1.265625 1.390625 -3.390625 1.390625q-2.09375 0 -3.390625 -1.375q-1.296875 -1.375 -1.296875 -3.671875q0 -2.296875 1.265625 -3.671875q1.265625 -1.375 3.421875 -1.375zm-3.015625 5.046875q0 1.65625 0.84375 2.65625q0.859375 0.984375 2.171875 0.984375q1.296875 0 2.140625 -0.984375q0.859375 -1.0 0.859375 -2.65625q0 -1.640625 -0.84375 -2.640625q-0.84375 -1.015625 -2.171875 -1.015625q-1.28125 0 -2.140625 0.984375q-0.859375 0.984375 -0.859375 2.671875zm11.150269 -4.828125l0 6.578125q0 0.8125 0.515625 1.359375q0.53125 0.53125 1.453125 0.53125q1.359375 0 2.09375 -0.828125q0.75 -0.84375 0.75 -2.140625l0 -5.5l1.59375 0l0 9.640625l-1.5 0l0 -1.53125l-0.03125 0q-0.53125 0.921875 -1.328125 1.34375q-0.796875 0.421875 -1.8125 0.421875q-1.6875 0 -2.515625 -0.875q-0.8125 -0.875 -0.8125 -2.578125l0 -6.421875l1.59375 0zm13.453857 -0.21875q1.75 0 2.53125 0.890625q0.796875 0.890625 0.796875 2.546875l0 6.421875l-1.59375 0l0 -6.59375q0 -0.8125 -0.53125 -1.34375q-0.515625 -0.53125 -1.4375 -0.53125q-1.34375 0 -2.09375 0.828125q-0.75 0.8125 -0.75 2.125l0 5.515625l-1.59375 0l0 -9.640625l1.5 0l0 1.53125l0.03125 0q0.53125 -0.90625 1.296875 -1.328125q0.78125 -0.421875 1.84375 -0.421875zm7.9069214 -2.671875l0 2.890625l1.921875 0l0 1.390625l-1.921875 0l0 6.046875q0 0.71875 0.484375 0.765625q0.484375 0.03125 1.0 0.03125l0.4375 0l0 1.40625l-1.296875 0q-1.3125 0 -1.765625 -0.453125q-0.4375 -0.46875 -0.4375 -1.5625l0 -6.234375l-1.65625 0l0 -1.390625l1.65625 0l0 -2.890625l1.578125 0z" fill-rule="nonzero"/><path fill="#000000" fill-opacity="0.0" d="m487.6473 104.93837l169.95273 0l0 55.62204l-169.95273 0z" fill-rule="evenodd"/><path stroke="#000000" stroke-width="2.0" stroke-linejoin="round" stroke-linecap="butt" d="m487.6473 104.93837l169.95273 0l0 55.62204l-169.95273 0z" fill-rule="evenodd"/><path fill="#000000" fill-opacity="0.0" d="m490.68445 116.592l163.87402 0l0 31.464561l-163.87402 0z" fill-rule="evenodd"/><path fill="#000000" d="m548.6554 125.931786q1.828125 0 2.90625 1.0q1.09375 0.984375 1.09375 2.9374924q0 1.953125 -1.09375 2.9375q-1.078125 0.984375 -2.78125 0.984375l-4.28125 0l0 5.453125l-1.765625 0l0 -13.312492l5.921875 0zm-0.484375 6.3749924q1.265625 0 1.984375 -0.59375q0.734375 -0.609375 0.734375 -1.84375q0 -1.234375 -0.71875 -1.84375q-0.71875 -0.6093674 -2.109375 -0.6093674l-3.5625 0l0 4.8906174l3.671875 0zm9.782288 -2.921875q1.96875 0 2.78125 0.703125q0.828125 0.6875 0.828125 1.875q0 5.015625 0 5.5625q0 0.546875 0.5 0.546875q0.109375 0 0.234375 -0.03125q0.140625 -0.03125 0.25 -0.0625l0 1.234375q-0.21875 0.125 -0.5 0.1875q-0.28125 0.078125 -0.625 0.078125q-0.65625 0 -1.0 -0.375q-0.34375 -0.375 -0.34375 -1.125q-0.640625 0.75 -1.5 1.125q-0.84375 0.375 -1.90625 0.375q-1.484375 0 -2.34375 -0.703125q-0.84375 -0.71875 -0.84375 -2.015625q0 -1.296875 0.828125 -2.046875q0.828125 -0.765625 3.90625 -1.15625q1.03125 -0.140625 1.390625 -0.390625q0.375 -0.265625 0.375 -0.796875q0 -0.796875 -0.515625 -1.1875q-0.5 -0.40625 -1.625 -0.40625q-1.171875 0 -1.765625 0.453125q-0.59375 0.4375 -0.640625 1.375l-1.578125 0q0.078125 -1.609375 1.125 -2.40625q1.0625 -0.8125 2.96875 -0.8125zm-2.796875 7.265625q0 0.671875 0.484375 1.046875q0.5 0.375 1.390625 0.375q1.34375 0 2.140625 -0.65625q0.796875 -0.671875 0.796875 -1.5l0 -1.65625q-0.390625 0.28125 -1.03125 0.390625q-0.640625 0.09375 -1.703125 0.234375q-1.046875 0.15625 -1.5625 0.578125q-0.515625 0.421875 -0.515625 1.1875zm13.676697 -7.28125q0.046875 0 0.09375 0q0.046875 0 0.125 0.015625l0 1.671875q-1.796875 0 -2.65625 0.953125q-0.84375 0.9375 -0.84375 2.921875l0 4.3125l-1.578125 0l0 -9.640625l1.484375 0l0 2.03125l0.046875 0q0.546875 -1.15625 1.359375 -1.703125q0.828125 -0.5625 1.96875 -0.5625zm3.0877075 -3.4374924l0 7.8906174l4.40625 -4.21875l2.125 0l-3.828125 3.5l4.109375 6.140625l-2.015625 0l-3.3125 -5.03125l-1.484375 1.375l0 3.65625l-1.59375 0l0 -13.312492l1.59375 0zm9.683411 0l0 1.9375l-1.59375 0l0 -1.9375l1.59375 0zm0 3.6718674l0 9.640625l-1.59375 0l0 -9.640625l1.59375 0zm7.1291504 -0.21875q1.75 0 2.53125 0.890625q0.796875 0.890625 0.796875 2.546875l0 6.421875l-1.59375 0l0 -6.59375q0 -0.8125 -0.53125 -1.34375q-0.515625 -0.53125 -1.4375 -0.53125q-1.34375 0 -2.09375 0.828125q-0.75 0.8125 -0.75 2.125l0 5.515625l-1.59375 0l0 -9.640625l1.5 0l0 1.53125l0.03125 0q0.53125 -0.90625 1.296875 -1.328125q0.78125 -0.421875 1.84375 -0.421875zm9.641357 0q1.0 0 1.734375 0.4375q0.75 0.4375 1.140625 1.15625l0.03125 0l0 -1.375l1.484375 0l0 8.921875q0 2.265625 -1.09375 3.453125q-1.09375 1.1875 -3.375 1.1875q-1.65625 0 -2.796875 -0.734375q-1.125 -0.734375 -1.203125 -2.109375l1.578125 0q0.046875 0.75 0.796875 1.15625q0.75 0.421875 1.703125 0.421875q1.40625 0 2.15625 -0.9375q0.75 -0.921875 0.75 -2.75l0 -0.609375l-0.046875 0q-0.375 0.796875 -1.1875 1.28125q-0.796875 0.46875 -1.828125 0.46875q-1.953125 0 -3.125 -1.34375q-1.171875 -1.359375 -1.171875 -3.53125q0 -2.21875 1.171875 -3.65625q1.171875 -1.4375 3.28125 -1.4375zm-2.78125 4.890625q0 1.71875 0.71875 2.703125q0.734375 0.984375 2.015625 0.984375q1.3125 0 2.078125 -1.015625q0.78125 -1.015625 0.78125 -2.71875q0 -1.546875 -0.71875 -2.5q-0.71875 -0.953125 -2.03125 -0.953125q-1.328125 0 -2.09375 0.953125q-0.75 0.953125 -0.75 2.546875z" fill-rule="nonzero"/><path fill="#000000" fill-opacity="0.0" d="m22.03576 76.40031l169.95274 0l0 55.622047l-169.95274 0z" fill-rule="evenodd"/><path stroke="#000000" stroke-width="2.0" stroke-linejoin="round" stroke-linecap="butt" d="m22.03576 76.40031l169.95274 0l0 55.622047l-169.95274 0z" fill-rule="evenodd"/><path fill="#000000" fill-opacity="0.0" d="m25.072908 88.05395l163.87402 0l0 31.464561l-163.87402 0z" fill-rule="evenodd"/><path fill="#000000" d="m56.610397 86.39372q2.46875 0 3.34375 1.0q0.890625 0.984375 0.890625 2.25q0 1.0625 -0.515625 1.84375q-0.515625 0.765625 -1.453125 1.15625l0 0.03125q1.21875 0.265625 1.875 1.125q0.65625 0.84375 0.65625 2.078125q0 1.625 -1.140625 2.734375q-1.125 1.09375 -2.828125 1.09375l-6.515625 0l0 -13.3125l5.6875 0zm-0.28125 5.71875q1.328125 0 2.03125 -0.5q0.71875 -0.5 0.71875 -1.625q0 -1.0625 -0.59375 -1.578125q-0.59375 -0.53125 -2.140625 -0.53125l-3.65625 0l0 4.234375l3.640625 0zm0.875 6.09375q1.078125 0 1.75 -0.640625q0.6875 -0.640625 0.6875 -1.734375q0 -1.125 -0.765625 -1.671875q-0.765625 -0.5625 -2.203125 -0.5625l-3.984375 0l0 4.609375l4.515625 0zm7.8274994 -8.140625l0 6.578125q0 0.8125 0.515625 1.359375q0.53125 0.53125 1.453125 0.53125q1.359375 0 2.09375 -0.828125q0.75 -0.84375 0.75 -2.140625l0 -5.5l1.59375 0l0 9.640625l-1.5 0l0 -1.53125l-0.03125 0q-0.53125 0.921875 -1.328125 1.34375q-0.796875 0.421875 -1.8125 0.421875q-1.6875 0 -2.515625 -0.875q-0.8125 -0.875 -0.8125 -2.578125l0 -6.421875l1.59375 0zm9.531967 0l2.8125 7.875l0.046875 0l2.703125 -7.875l1.6875 0l-4.109375 10.671875q-0.640625 1.671875 -1.234375 2.25q-0.59375 0.578125 -1.65625 0.578125q-0.296875 0 -0.578125 -0.03125q-0.265625 -0.03125 -0.53125 -0.125l0 -1.46875q0.234375 0.078125 0.46875 0.140625q0.234375 0.078125 0.46875 0.078125q0.96875 0 1.34375 -0.96875q0.390625 -0.953125 0.609375 -1.53125l-3.828125 -9.59375l1.796875 0zm17.714554 -0.21875q1.96875 0 2.78125 0.703125q0.828125 0.6875 0.828125 1.875q0 5.015625 0 5.5625q0 0.546875 0.5 0.546875q0.109375 0 0.234375 -0.03125q0.140625 -0.03125 0.25 -0.0625l0 1.234375q-0.21875 0.125 -0.5 0.1875q-0.28125 0.078125 -0.625 0.078125q-0.65625 0 -1.0 -0.375q-0.34375 -0.375 -0.34375 -1.125q-0.640625 0.75 -1.5 1.125q-0.84375 0.375 -1.90625 0.375q-1.484375 0 -2.34375 -0.703125q-0.84375 -0.71875 -0.84375 -2.015625q0 -1.296875 0.828125 -2.046875q0.828125 -0.765625 3.90625 -1.15625q1.03125 -0.140625 1.390625 -0.390625q0.375 -0.265625 0.375 -0.796875q0 -0.796875 -0.515625 -1.1875q-0.5 -0.40625 -1.625 -0.40625q-1.171875 0 -1.765625 0.453125q-0.59375 0.4375 -0.640625 1.375l-1.578125 0q0.078125 -1.609375 1.125 -2.40625q1.0625 -0.8125 2.96875 -0.8125zm-2.796875 7.265625q0 0.671875 0.484375 1.046875q0.5 0.375 1.390625 0.375q1.34375 0 2.140625 -0.65625q0.796875 -0.671875 0.796875 -1.5l0 -1.65625q-0.390625 0.28125 -1.03125 0.390625q-0.640625 0.09375 -1.703125 0.234375q-1.046875 0.15625 -1.5625 0.578125q-0.515625 0.421875 -0.515625 1.1875zm18.813126 -7.265625q2.0625 0 3.25 1.421875q1.1875 1.421875 1.1875 3.640625q0 2.25 -1.1875 3.640625q-1.171875 1.390625 -3.203125 1.390625q-0.90625 0 -1.765625 -0.375q-0.859375 -0.375 -1.359375 -1.140625l-0.046875 0l0 4.984375l-1.578125 0l0 -13.34375l1.578125 0l0 1.3125l0.046875 0q0.375 -0.75 1.171875 -1.140625q0.8125 -0.390625 1.90625 -0.390625zm-3.171875 5.03125q0 1.671875 0.8125 2.671875q0.8125 0.984375 2.234375 0.984375q1.375 0 2.125 -0.984375q0.75 -0.984375 0.75 -2.75q0 -1.546875 -0.796875 -2.546875q-0.796875 -1.015625 -2.1875 -1.015625q-1.40625 0 -2.171875 1.015625q-0.765625 1.015625 -0.765625 2.625zm13.418304 -5.03125q1.96875 0 2.78125 0.703125q0.828125 0.6875 0.828125 1.875q0 5.015625 0 5.5625q0 0.546875 0.5 0.546875q0.109375 0 0.234375 -0.03125q0.140625 -0.03125 0.25 -0.0625l0 1.234375q-0.21875 0.125 -0.5 0.1875q-0.28125 0.078125 -0.625 0.078125q-0.65625 0 -1.0 -0.375q-0.34375 -0.375 -0.34375 -1.125q-0.640625 0.75 -1.5 1.125q-0.84375 0.375 -1.90625 0.375q-1.484375 0 -2.34375 -0.703125q-0.84375 -0.71875 -0.84375 -2.015625q0 -1.296875 0.828125 -2.046875q0.828125 -0.765625 3.90625 -1.15625q1.03125 -0.140625 1.390625 -0.390625q0.375 -0.265625 0.375 -0.796875q0 -0.796875 -0.515625 -1.1875q-0.5 -0.40625 -1.625 -0.40625q-1.171875 0 -1.765625 0.453125q-0.59375 0.4375 -0.640625 1.375l-1.578125 0q0.078125 -1.609375 1.125 -2.40625q1.0625 -0.8125 2.96875 -0.8125zm-2.796875 7.265625q0 0.671875 0.484375 1.046875q0.5 0.375 1.390625 0.375q1.34375 0 2.140625 -0.65625q0.796875 -0.671875 0.796875 -1.5l0 -1.65625q-0.390625 0.28125 -1.03125 0.390625q-0.640625 0.09375 -1.703125 0.234375q-1.046875 0.15625 -1.5625 0.578125q-0.515625 0.421875 -0.515625 1.1875zm13.676697 -7.28125q0.046875 0 0.09375 0q0.046875 0 0.125 0.015625l0 1.671875q-1.796875 0 -2.65625 0.953125q-0.84375 0.9375 -0.84375 2.921875l0 4.3125l-1.578125 0l0 -9.640625l1.484375 0l0 2.03125l0.046875 0q0.546875 -1.15625 1.359375 -1.703125q0.828125 -0.5625 1.96875 -0.5625zm3.087677 -3.4375l0 7.890625l4.40625 -4.21875l2.125 0l-3.828125 3.5l4.109375 6.140625l-2.015625 0l-3.3125 -5.03125l-1.484375 1.375l0 3.65625l-1.59375 0l0 -13.3125l1.59375 0zm9.683395 0l0 1.9375l-1.59375 0l0 -1.9375l1.59375 0zm0 3.671875l0 9.640625l-1.59375 0l0 -9.640625l1.59375 0zm7.129196 -0.21875q1.75 0 2.53125 0.890625q0.796875 0.890625 0.796875 2.546875l0 6.421875l-1.59375 0l0 -6.59375q0 -0.8125 -0.53125 -1.34375q-0.515625 -0.53125 -1.4375 -0.53125q-1.34375 0 -2.09375 0.828125q-0.75 0.8125 -0.75 2.125l0 5.515625l-1.59375 0l0 -9.640625l1.5 0l0 1.53125l0.03125 0q0.53125 -0.90625 1.296875 -1.328125q0.78125 -0.421875 1.84375 -0.421875zm9.641342 0q1.0 0 1.734375 0.4375q0.75 0.4375 1.140625 1.15625l0.03125 0l0 -1.375l1.484375 0l0 8.921875q0 2.265625 -1.09375 3.453125q-1.09375 1.1875 -3.375 1.1875q-1.65625 0 -2.796875 -0.734375q-1.125 -0.734375 -1.203125 -2.109375l1.578125 0q0.046875 0.75 0.796875 1.15625q0.75 0.421875 1.703125 0.421875q1.40625 0 2.15625 -0.9375q0.75 -0.921875 0.75 -2.75l0 -0.609375l-0.046875 0q-0.375 0.796875 -1.1875 1.28125q-0.796875 0.46875 -1.828125 0.46875q-1.953125 0 -3.125 -1.34375q-1.171875 -1.359375 -1.171875 -3.53125q0 -2.21875 1.171875 -3.65625q1.171875 -1.4375 3.28125 -1.4375zm-2.78125 4.890625q0 1.71875 0.71875 2.703125q0.734375 0.984375 2.015625 0.984375q1.3125 0 2.078125 -1.015625q0.78125 -1.015625 0.78125 -2.71875q0 -1.546875 -0.71875 -2.5q-0.71875 -0.953125 -2.03125 -0.953125q-1.328125 0 -2.09375 0.953125q-0.75 0.953125 -0.75 2.546875z" fill-rule="nonzero"/><path fill="#000000" d="m86.34964 111.846855q2.0625 0 3.25 1.421875q1.1875 1.421875 1.1875 3.640625q0 2.25 -1.1875 3.640625q-1.171875 1.390625 -3.203125 1.390625q-0.90625 0 -1.765625 -0.375q-0.859375 -0.375 -1.359375 -1.140625l-0.046875 0l0 4.984375l-1.578125 0l0 -13.34375l1.578125 0l0 1.3125l0.046875 0q0.375 -0.75 1.171875 -1.140625q0.8125 -0.390625 1.90625 -0.390625zm-3.171875 5.03125q0 1.671875 0.8125 2.671875q0.8125 0.984375 2.234375 0.984375q1.375 0 2.125 -0.984375q0.75 -0.984375 0.75 -2.75q0 -1.546875 -0.796875 -2.546875q-0.796875 -1.015625 -2.1875 -1.015625q-1.40625 0 -2.171875 1.015625q-0.765625 1.015625 -0.765625 2.625zm13.480804 -5.03125q2.078125 0 3.21875 1.5q1.15625 1.484375 1.15625 3.828125l0 0.1875l-7.234375 0l0 0.109375q0 1.390625 0.796875 2.234375q0.8125 0.828125 2.21875 0.828125q1.046875 0 1.671875 -0.484375q0.625 -0.5 0.828125 -1.40625l1.5625 0q-0.328125 1.609375 -1.40625 2.453125q-1.078125 0.84375 -2.71875 0.84375q-1.515625 0 -2.578125 -0.6875q-1.046875 -0.6875 -1.546875 -1.90625q-0.5 -1.234375 -0.5 -2.515625q0 -2.140625 1.28125 -3.5625q1.296875 -1.421875 3.25 -1.421875zm-2.859375 4.109375l5.546875 0q-0.078125 -1.171875 -0.859375 -1.9375q-0.765625 -0.78125 -1.9375 -0.78125q-1.09375 0 -1.875 0.734375q-0.765625 0.734375 -0.875 1.984375zm13.676697 -4.125q0.046875 0 0.09375 0q0.046875 0 0.125 0.015625l0 1.671875q-1.796875 0 -2.65625 0.953125q-0.84375 0.9375 -0.84375 2.921875l0 4.3125l-1.578125 0l0 -9.640625l1.484375 0l0 2.03125l0.046875 0q0.546875 -1.15625 1.359375 -1.703125q0.828125 -0.5625 1.96875 -0.5625zm6.056427 0.015625q1.046875 0 1.71875 0.421875q0.671875 0.421875 0.921875 1.21875q0.5 -0.78125 1.28125 -1.203125q0.796875 -0.4375 1.765625 -0.4375q1.625 0 2.40625 0.734375q0.78125 0.734375 0.78125 2.0l0 7.125l-1.578125 0l0 -6.390625q0 -1.046875 -0.453125 -1.5625q-0.4375 -0.515625 -1.421875 -0.515625q-1.1875 0 -1.859375 0.6875q-0.65625 0.6875 -0.65625 1.71875l0 6.0625l-1.59375 0l0 -6.390625q0 -1.046875 -0.4375 -1.5625q-0.4375 -0.515625 -1.359375 -0.515625q-0.765625 0 -1.34375 0.359375q-0.578125 0.359375 -0.90625 1.0q-0.328125 0.625 -0.328125 1.0625l0 6.046875l-1.59375 0l0 -9.640625l1.5 0l0 1.421875l0.03125 0q0.546875 -0.84375 1.3125 -1.234375q0.78125 -0.40625 1.8125 -0.40625zm12.945541 -3.453125l0 1.9375l-1.59375 0l0 -1.9375l1.59375 0zm0 3.671875l0 9.640625l-1.59375 0l0 -9.640625l1.59375 0zm4.660446 -2.890625l0 2.890625l1.921875 0l0 1.390625l-1.921875 0l0 6.046875q0 0.71875 0.484375 0.765625q0.484375 0.03125 1.0 0.03125l0.4375 0l0 1.40625l-1.296875 0q-1.3125 0 -1.765625 -0.453125q-0.4375 -0.46875 -0.4375 -1.5625l0 -6.234375l-1.65625 0l0 -1.390625l1.65625 0l0 -2.890625l1.578125 0z" fill-rule="nonzero"/><path fill="#000000" fill-opacity="0.0" d="m22.033136 148.48384l169.95274 0l0 55.622055l-169.95274 0z" fill-rule="evenodd"/><path stroke="#000000" stroke-width="2.0" stroke-linejoin="round" stroke-linecap="butt" d="m22.033136 148.48384l169.95274 0l0 55.622055l-169.95274 0z" fill-rule="evenodd"/><path fill="#000000" fill-opacity="0.0" d="m25.072908 160.56277l163.87402 0l0 31.464554l-163.87402 0z" fill-rule="evenodd"/><path fill="#000000" d="m57.64656 158.90254q1.828125 0 2.90625 1.0q1.09375 0.984375 1.09375 2.9375q0 1.953125 -1.09375 2.9375q-1.078125 0.984375 -2.78125 0.984375l-4.28125 0l0 5.453125l-1.765625 0l0 -13.3125l5.921875 0zm-0.484375 6.375q1.265625 0 1.984375 -0.59375q0.734375 -0.609375 0.734375 -1.84375q0 -1.234375 -0.71875 -1.84375q-0.71875 -0.609375 -2.109375 -0.609375l-3.5625 0l0 4.890625l3.671875 0zm9.782318 -2.921875q1.96875 0 2.78125 0.703125q0.828125 0.6875 0.828125 1.875q0 5.015625 0 5.5625q0 0.546875 0.5 0.546875q0.109375 0 0.234375 -0.03125q0.140625 -0.03125 0.25 -0.0625l0 1.234375q-0.21875 0.125 -0.5 0.1875q-0.28125 0.078125 -0.625 0.078125q-0.65625 0 -1.0 -0.375q-0.34375 -0.375 -0.34375 -1.125q-0.640625 0.75 -1.5 1.125q-0.84375 0.375 -1.90625 0.375q-1.484375 0 -2.34375 -0.703125q-0.84375 -0.71875 -0.84375 -2.015625q0 -1.296875 0.828125 -2.046875q0.828125 -0.765625 3.90625 -1.15625q1.03125 -0.140625 1.390625 -0.390625q0.375 -0.265625 0.375 -0.796875q0 -0.796875 -0.515625 -1.1875q-0.5 -0.40625 -1.625 -0.40625q-1.171875 0 -1.765625 0.453125q-0.59375 0.4375 -0.640625 1.375l-1.578125 0q0.078125 -1.609375 1.125 -2.40625q1.0625 -0.8125 2.96875 -0.8125zm-2.796875 7.265625q0 0.671875 0.484375 1.046875q0.5 0.375 1.390625 0.375q1.34375 0 2.140625 -0.65625q0.796875 -0.671875 0.796875 -1.5l0 -1.65625q-0.390625 0.28125 -1.03125 0.390625q-0.640625 0.09375 -1.703125 0.234375q-1.046875 0.15625 -1.5625 0.578125q-0.515625 0.421875 -0.515625 1.1875zm9.614197 -7.046875l2.8125 7.875l0.046875 0l2.703125 -7.875l1.6875 0l-4.109375 10.671875q-0.640625 1.671875 -1.234375 2.25q-0.59375 0.578125 -1.65625 0.578125q-0.296875 0 -0.578125 -0.03125q-0.265625 -0.03125 -0.53125 -0.125l0 -1.46875q0.234375 0.078125 0.46875 0.140625q0.234375 0.078125 0.46875 0.078125q0.96875 0 1.34375 -0.96875q0.390625 -0.953125 0.609375 -1.53125l-3.828125 -9.59375l1.796875 0zm17.714554 -0.21875q1.96875 0 2.78125 0.703125q0.828125 0.6875 0.828125 1.875q0 5.015625 0 5.5625q0 0.546875 0.5 0.546875q0.109375 0 0.234375 -0.03125q0.140625 -0.03125 0.25 -0.0625l0 1.234375q-0.21875 0.125 -0.5 0.1875q-0.28125 0.078125 -0.625 0.078125q-0.65625 0 -1.0 -0.375q-0.34375 -0.375 -0.34375 -1.125q-0.640625 0.75 -1.5 1.125q-0.84375 0.375 -1.90625 0.375q-1.484375 0 -2.34375 -0.703125q-0.84375 -0.71875 -0.84375 -2.015625q0 -1.296875 0.828125 -2.046875q0.828125 -0.765625 3.90625 -1.15625q1.03125 -0.140625 1.390625 -0.390625q0.375 -0.265625 0.375 -0.796875q0 -0.796875 -0.515625 -1.1875q-0.5 -0.40625 -1.625 -0.40625q-1.171875 0 -1.765625 0.453125q-0.59375 0.4375 -0.640625 1.375l-1.578125 0q0.078125 -1.609375 1.125 -2.40625q1.0625 -0.8125 2.96875 -0.8125zm-2.796875 7.265625q0 0.671875 0.484375 1.046875q0.5 0.375 1.390625 0.375q1.34375 0 2.140625 -0.65625q0.796875 -0.671875 0.796875 -1.5l0 -1.65625q-0.390625 0.28125 -1.03125 0.390625q-0.640625 0.09375 -1.703125 0.234375q-1.046875 0.15625 -1.5625 0.578125q-0.515625 0.421875 -0.515625 1.1875zm18.813126 -7.265625q2.0625 0 3.25 1.421875q1.1875 1.421875 1.1875 3.640625q0 2.25 -1.1875 3.640625q-1.171875 1.390625 -3.203125 1.390625q-0.90625 0 -1.765625 -0.375q-0.859375 -0.375 -1.359375 -1.140625l-0.046875 0l0 4.984375l-1.578125 0l0 -13.34375l1.578125 0l0 1.3125l0.046875 0q0.375 -0.75 1.171875 -1.140625q0.8125 -0.390625 1.90625 -0.390625zm-3.171875 5.03125q0 1.671875 0.8125 2.671875q0.8125 0.984375 2.234375 0.984375q1.375 0 2.125 -0.984375q0.75 -0.984375 0.75 -2.75q0 -1.546875 -0.796875 -2.546875q-0.796875 -1.015625 -2.1875 -1.015625q-1.40625 0 -2.171875 1.015625q-0.765625 1.015625 -0.765625 2.625zm13.418304 -5.03125q1.96875 0 2.78125 0.703125q0.828125 0.6875 0.828125 1.875q0 5.015625 0 5.5625q0 0.546875 0.5 0.546875q0.109375 0 0.234375 -0.03125q0.140625 -0.03125 0.25 -0.0625l0 1.234375q-0.21875 0.125 -0.5 0.1875q-0.28125 0.078125 -0.625 0.078125q-0.65625 0 -1.0 -0.375q-0.34375 -0.375 -0.34375 -1.125q-0.640625 0.75 -1.5 1.125q-0.84375 0.375 -1.90625 0.375q-1.484375 0 -2.34375 -0.703125q-0.84375 -0.71875 -0.84375 -2.015625q0 -1.296875 0.828125 -2.046875q0.828125 -0.765625 3.90625 -1.15625q1.03125 -0.140625 1.390625 -0.390625q0.375 -0.265625 0.375 -0.796875q0 -0.796875 -0.515625 -1.1875q-0.5 -0.40625 -1.625 -0.40625q-1.171875 0 -1.765625 0.453125q-0.59375 0.4375 -0.640625 1.375l-1.578125 0q0.078125 -1.609375 1.125 -2.40625q1.0625 -0.8125 2.96875 -0.8125zm-2.796875 7.265625q0 0.671875 0.484375 1.046875q0.5 0.375 1.390625 0.375q1.34375 0 2.140625 -0.65625q0.796875 -0.671875 0.796875 -1.5l0 -1.65625q-0.390625 0.28125 -1.03125 0.390625q-0.640625 0.09375 -1.703125 0.234375q-1.046875 0.15625 -1.5625 0.578125q-0.515625 0.421875 -0.515625 1.1875zm13.676697 -7.28125q0.046875 0 0.09375 0q0.046875 0 0.125 0.015625l0 1.671875q-1.796875 0 -2.65625 0.953125q-0.84375 0.9375 -0.84375 2.921875l0 4.3125l-1.578125 0l0 -9.640625l1.484375 0l0 2.03125l0.046875 0q0.546875 -1.15625 1.359375 -1.703125q0.828125 -0.5625 1.96875 -0.5625zm3.087677 -3.4375l0 7.890625l4.40625 -4.21875l2.125 0l-3.828125 3.5l4.109375 6.140625l-2.015625 0l-3.3125 -5.03125l-1.484375 1.375l0 3.65625l-1.59375 0l0 -13.3125l1.59375 0zm9.683395 0l0 1.9375l-1.59375 0l0 -1.9375l1.59375 0zm0 3.671875l0 9.640625l-1.59375 0l0 -9.640625l1.59375 0zm7.129196 -0.21875q1.75 0 2.53125 0.890625q0.796875 0.890625 0.796875 2.546875l0 6.421875l-1.59375 0l0 -6.59375q0 -0.8125 -0.53125 -1.34375q-0.515625 -0.53125 -1.4375 -0.53125q-1.34375 0 -2.09375 0.828125q-0.75 0.8125 -0.75 2.125l0 5.515625l-1.59375 0l0 -9.640625l1.5 0l0 1.53125l0.03125 0q0.53125 -0.90625 1.296875 -1.328125q0.78125 -0.421875 1.84375 -0.421875zm9.641342 0q1.0 0 1.734375 0.4375q0.75 0.4375 1.140625 1.15625l0.03125 0l0 -1.375l1.484375 0l0 8.921875q0 2.265625 -1.09375 3.453125q-1.09375 1.1875 -3.375 1.1875q-1.65625 0 -2.796875 -0.734375q-1.125 -0.734375 -1.203125 -2.109375l1.578125 0q0.046875 0.75 0.796875 1.15625q0.75 0.421875 1.703125 0.421875q1.40625 0 2.15625 -0.9375q0.75 -0.921875 0.75 -2.75l0 -0.609375l-0.046875 0q-0.375 0.796875 -1.1875 1.28125q-0.796875 0.46875 -1.828125 0.46875q-1.953125 0 -3.125 -1.34375q-1.171875 -1.359375 -1.171875 -3.53125q0 -2.21875 1.171875 -3.65625q1.171875 -1.4375 3.28125 -1.4375zm-2.78125 4.890625q0 1.71875 0.71875 2.703125q0.734375 0.984375 2.015625 0.984375q1.3125 0 2.078125 -1.015625q0.78125 -1.015625 0.78125 -2.71875q0 -1.546875 -0.71875 -2.5q-0.71875 -0.953125 -2.03125 -0.953125q-1.328125 0 -2.09375 0.953125q-0.75 0.953125 -0.75 2.546875z" fill-rule="nonzero"/><path fill="#000000" d="m96.47924 180.7463q0.203125 0 0.515625 0.046875q0.328125 0.046875 0.515625 0.109375l0 1.375q-0.171875 -0.0625 -0.4375 -0.09375q-0.265625 -0.03125 -0.453125 -0.03125q-0.65625 0 -0.9375 0.265625q-0.265625 0.265625 -0.265625 0.765625l0 1.390625l1.859375 0l0 1.390625l-1.859375 0l0 8.25l-1.59375 0l0 -8.25l-1.609375 0l0 -1.390625l1.609375 0l0 -1.515625q0 -1.0625 0.671875 -1.6875q0.671875 -0.625 1.984375 -0.625zm4.375 0.15625l0 1.9375l-1.59375 0l0 -1.9375l1.59375 0zm0 3.671875l0 9.640625l-1.59375 0l0 -9.640625l1.59375 0zm6.6495514 -0.21875q1.75 0 2.53125 0.890625q0.796875 0.890625 0.796875 2.546875l0 6.421875l-1.59375 0l0 -6.59375q0 -0.8125 -0.53125 -1.34375q-0.515625 -0.53125 -1.4375 -0.53125q-1.34375 0 -2.09375 0.828125q-0.75 0.8125 -0.75 2.125l0 5.515625l-1.59375 0l0 -9.640625l1.5 0l0 1.53125l0.03125 0q0.53125 -0.90625 1.296875 -1.328125q0.78125 -0.421875 1.84375 -0.421875zm9.719467 0q2.078125 0 3.21875 1.5q1.15625 1.484375 1.15625 3.828125l0 0.1875l-7.234375 0l0 0.109375q0 1.390625 0.796875 2.234375q0.8125 0.828125 2.21875 0.828125q1.046875 0 1.671875 -0.484375q0.625 -0.5 0.828125 -1.40625l1.5625 0q-0.328125 1.609375 -1.40625 2.453125q-1.078125 0.84375 -2.71875 0.84375q-1.515625 0 -2.578125 -0.6875q-1.046875 -0.6875 -1.546875 -1.90625q-0.5 -1.234375 -0.5 -2.515625q0 -2.140625 1.28125 -3.5625q1.296875 -1.421875 3.25 -1.421875zm-2.859375 4.109375l5.546875 0q-0.078125 -1.171875 -0.859375 -1.9375q-0.765625 -0.78125 -1.9375 -0.78125q-1.09375 0 -1.875 0.734375q-0.765625 0.734375 -0.875 1.984375z" fill-rule="nonzero"/><path fill="#000000" fill-opacity="0.0" d="m191.98851 104.211334l62.86615 0" fill-rule="evenodd"/><path stroke="#000000" stroke-width="2.0" stroke-linejoin="round" stroke-linecap="butt" d="m191.98851 104.211334l50.86615 0" fill-rule="evenodd"/><path fill="#000000" stroke="#000000" stroke-width="2.0" stroke-linecap="butt" d="m242.85466 107.5148l9.076187 -3.3034668l-9.076187 -3.3034592z" fill-rule="evenodd"/><path fill="#000000" fill-opacity="0.0" d="m191.98589 176.29486l62.86615 0" fill-rule="evenodd"/><path stroke="#000000" stroke-width="2.0" stroke-linejoin="round" stroke-linecap="butt" d="m191.98589 176.29486l50.86615 0" fill-rule="evenodd"/><path fill="#000000" stroke="#000000" stroke-width="2.0" stroke-linecap="butt" d="m242.85204 179.59833l9.076187 -3.3034668l-9.076187 -3.3034668z" fill-rule="evenodd"/><path fill="#000000" fill-opacity="0.0" d="m254.84154 76.40031l169.95274 0l0 55.622047l-169.95274 0z" fill-rule="evenodd"/><path stroke="#000000" stroke-width="2.0" stroke-linejoin="round" stroke-linecap="butt" d="m254.84154 76.40031l169.95274 0l0 55.622047l-169.95274 0z" fill-rule="evenodd"/><path fill="#000000" fill-opacity="0.0" d="m257.8787 88.05395l163.874 0l0 31.464561l-163.874 0z" fill-rule="evenodd"/><path fill="#000000" d="m281.9805 97.39373q1.828125 0 2.90625 1.0q1.09375 0.984375 1.09375 2.9375q0 1.953125 -1.09375 2.9375q-1.078125 0.984375 -2.78125 0.984375l-4.28125 0l0 5.453125l-1.765625 0l0 -13.3125l5.921875 0zm-0.484375 6.375q1.265625 0 1.984375 -0.59375q0.734375 -0.609375 0.734375 -1.84375q0 -1.234375 -0.71875 -1.84375q-0.71875 -0.609375 -2.109375 -0.609375l-3.5625 0l0 4.890625l3.671875 0zm9.782318 -2.921875q1.96875 0 2.78125 0.703125q0.828125 0.6875 0.828125 1.875q0 5.015625 0 5.5625q0 0.546875 0.5 0.546875q0.109375 0 0.234375 -0.03125q0.140625 -0.03125 0.25 -0.0625l0 1.234375q-0.21875 0.125 -0.5 0.1875q-0.28125 0.078125 -0.625 0.078125q-0.65625 0 -1.0 -0.375q-0.34375 -0.375 -0.34375 -1.125q-0.640625 0.75 -1.5 1.125q-0.84375 0.375 -1.90625 0.375q-1.484375 0 -2.34375 -0.703125q-0.84375 -0.71875 -0.84375 -2.015625q0 -1.296875 0.828125 -2.046875q0.828125 -0.765625 3.90625 -1.15625q1.03125 -0.140625 1.390625 -0.390625q0.375 -0.265625 0.375 -0.796875q0 -0.796875 -0.515625 -1.1875q-0.5 -0.40625 -1.625 -0.40625q-1.171875 0 -1.765625 0.453125q-0.59375 0.4375 -0.640625 1.375l-1.578125 0q0.078125 -1.609375 1.125 -2.40625q1.0625 -0.8125 2.96875 -0.8125zm-2.796875 7.265625q0 0.671875 0.484375 1.046875q0.5 0.375 1.390625 0.375q1.34375 0 2.140625 -0.65625q0.796875 -0.671875 0.796875 -1.5l0 -1.65625q-0.390625 0.28125 -1.03125 0.390625q-0.640625 0.09375 -1.703125 0.234375q-1.046875 0.15625 -1.5625 0.578125q-0.515625 0.421875 -0.515625 1.1875zm13.676697 -7.28125q0.046875 0 0.09375 0q0.046875 0 0.125 0.015625l0 1.671875q-1.796875 0 -2.65625 0.953125q-0.84375 0.9375 -0.84375 2.921875l0 4.3125l-1.578125 0l0 -9.640625l1.484375 0l0 2.03125l0.046875 0q0.546875 -1.15625 1.359375 -1.703125q0.828125 -0.5625 1.96875 -0.5625zm3.087677 -3.4375l0 7.890625l4.40625 -4.21875l2.125 0l-3.828125 3.5l4.109375 6.140625l-2.015625 0l-3.3125 -5.03125l-1.484375 1.375l0 3.65625l-1.59375 0l0 -13.3125l1.59375 0zm9.683411 0l0 1.9375l-1.59375 0l0 -1.9375l1.59375 0zm0 3.671875l0 9.640625l-1.59375 0l0 -9.640625l1.59375 0zm7.129181 -0.21875q1.75 0 2.53125 0.890625q0.796875 0.890625 0.796875 2.546875l0 6.421875l-1.59375 0l0 -6.59375q0 -0.8125 -0.53125 -1.34375q-0.515625 -0.53125 -1.4375 -0.53125q-1.34375 0 -2.09375 0.828125q-0.75 0.8125 -0.75 2.125l0 5.515625l-1.59375 0l0 -9.640625l1.5 0l0 1.53125l0.03125 0q0.53125 -0.90625 1.296875 -1.328125q0.78125 -0.421875 1.84375 -0.421875zm9.641357 0q1.0 0 1.734375 0.4375q0.75 0.4375 1.140625 1.15625l0.03125 0l0 -1.375l1.484375 0l0 8.921875q0 2.265625 -1.09375 3.453125q-1.09375 1.1875 -3.375 1.1875q-1.65625 0 -2.796875 -0.734375q-1.125 -0.734375 -1.203125 -2.109375l1.578125 0q0.046875 0.75 0.796875 1.15625q0.75 0.421875 1.703125 0.421875q1.40625 0 2.15625 -0.9375q0.75 -0.921875 0.75 -2.75l0 -0.609375l-0.046875 0q-0.375 0.796875 -1.1875 1.28125q-0.796875 0.46875 -1.828125 0.46875q-1.953125 0 -3.125 -1.34375q-1.171875 -1.359375 -1.171875 -3.53125q0 -2.21875 1.171875 -3.65625q1.171875 -1.4375 3.28125 -1.4375zm-2.78125 4.890625q0 1.71875 0.71875 2.703125q0.734375 0.984375 2.015625 0.984375q1.3125 0 2.078125 -1.015625q0.78125 -1.015625 0.78125 -2.71875q0 -1.546875 -0.71875 -2.5q-0.71875 -0.953125 -2.03125 -0.953125q-1.328125 0 -2.09375 0.953125q-0.75 0.953125 -0.75 2.546875zm19.505432 -4.890625q2.0625 0 3.25 1.421875q1.1875 1.421875 1.1875 3.640625q0 2.25 -1.1875 3.640625q-1.171875 1.390625 -3.203125 1.390625q-0.90625 0 -1.765625 -0.375q-0.859375 -0.375 -1.359375 -1.140625l-0.046875 0l0 4.984375l-1.578125 0l0 -13.34375l1.578125 0l0 1.3125l0.046875 0q0.375 -0.75 1.171875 -1.140625q0.8125 -0.390625 1.90625 -0.390625zm-3.171875 5.03125q0 1.671875 0.8125 2.671875q0.8125 0.984375 2.234375 0.984375q1.375 0 2.125 -0.984375q0.75 -0.984375 0.75 -2.75q0 -1.546875 -0.796875 -2.546875q-0.796875 -1.015625 -2.1875 -1.015625q-1.40625 0 -2.171875 1.015625q-0.765625 1.015625 -0.765625 2.625zm13.480804 -5.03125q2.078125 0 3.21875 1.5q1.15625 1.484375 1.15625 3.828125l0 0.1875l-7.234375 0l0 0.109375q0 1.390625 0.796875 2.234375q0.8125 0.828125 2.21875 0.828125q1.046875 0 1.671875 -0.484375q0.625 -0.5 0.828125 -1.40625l1.5625 0q-0.328125 1.609375 -1.40625 2.453125q-1.078125 0.84375 -2.71875 0.84375q-1.515625 0 -2.578125 -0.6875q-1.046875 -0.6875 -1.546875 -1.90625q-0.5 -1.234375 -0.5 -2.515625q0 -2.140625 1.28125 -3.5625q1.296875 -1.421875 3.25 -1.421875zm-2.859375 4.109375l5.546875 0q-0.078125 -1.171875 -0.859375 -1.9375q-0.765625 -0.78125 -1.9375 -0.78125q-1.09375 0 -1.875 0.734375q-0.765625 0.734375 -0.875 1.984375zm13.676697 -4.125q0.046875 0 0.09375 0q0.046875 0 0.125 0.015625l0 1.671875q-1.796875 0 -2.65625 0.953125q-0.84375 0.9375 -0.84375 2.921875l0 4.3125l-1.578125 0l0 -9.640625l1.484375 0l0 2.03125l0.046875 0q0.546875 -1.15625 1.359375 -1.703125q0.828125 -0.5625 1.96875 -0.5625zm6.056427 0.015625q1.046875 0 1.71875 0.421875q0.671875 0.421875 0.921875 1.21875q0.5 -0.78125 1.28125 -1.203125q0.796875 -0.4375 1.765625 -0.4375q1.625 0 2.40625 0.734375q0.78125 0.734375 0.78125 2.0l0 7.125l-1.578125 0l0 -6.390625q0 -1.046875 -0.453125 -1.5625q-0.4375 -0.515625 -1.421875 -0.515625q-1.1875 0 -1.859375 0.6875q-0.65625 0.6875 -0.65625 1.71875l0 6.0625l-1.59375 0l0 -6.390625q0 -1.046875 -0.4375 -1.5625q-0.4375 -0.515625 -1.359375 -0.515625q-0.765625 0 -1.34375 0.359375q-0.578125 0.359375 -0.90625 1.0q-0.328125 0.625 -0.328125 1.0625l0 6.046875l-1.59375 0l0 -9.640625l1.5 0l0 1.421875l0.03125 0q0.546875 -0.84375 1.3125 -1.234375q0.78125 -0.40625 1.8125 -0.40625zm12.945557 -3.453125l0 1.9375l-1.59375 0l0 -1.9375l1.59375 0zm0 3.671875l0 9.640625l-1.59375 0l0 -9.640625l1.59375 0zm4.660431 -2.890625l0 2.890625l1.921875 0l0 1.390625l-1.921875 0l0 6.046875q0 0.71875 0.484375 0.765625q0.484375 0.03125 1.0 0.03125l0.4375 0l0 1.40625l-1.296875 0q-1.3125 0 -1.765625 -0.453125q-0.4375 -0.46875 -0.4375 -1.5625l0 -6.234375l-1.65625 0l0 -1.390625l1.65625 0l0 -2.890625l1.578125 0zm6.891266 2.671875q1.9375 0 2.890625 0.75q0.953125 0.75 1.03125 2.265625l-1.578125 0l0 -0.03125q-0.0625 -0.765625 -0.671875 -1.171875q-0.609375 -0.421875 -1.5625 -0.421875q-0.953125 0 -1.515625 0.328125q-0.546875 0.3125 -0.546875 0.90625q0 0.515625 0.484375 0.859375q0.5 0.328125 1.484375 0.546875l1.484375 0.328125q1.40625 0.3125 2.125 0.953125q0.734375 0.640625 0.734375 1.734375q0 1.421875 -1.109375 2.234375q-1.09375 0.8125 -2.984375 0.8125q-1.859375 0 -2.953125 -0.828125q-1.078125 -0.84375 -1.140625 -2.453125l1.59375 0q0.03125 0.90625 0.703125 1.390625q0.6875 0.484375 1.875 0.484375q1.15625 0 1.75 -0.359375q0.59375 -0.375 0.59375 -1.078125q0 -0.65625 -0.59375 -1.03125q-0.59375 -0.375 -2.40625 -0.734375q-1.828125 -0.359375 -2.578125 -1.015625q-0.734375 -0.65625 -0.734375 -1.734375q0 -1.265625 1.03125 -2.0q1.03125 -0.734375 2.59375 -0.734375z" fill-rule="nonzero"/><path fill="#000000" fill-opacity="0.0" d="m254.83891 148.48384l169.95274 0l0 55.622055l-169.95274 0z" fill-rule="evenodd"/><path stroke="#000000" stroke-width="2.0" stroke-linejoin="round" stroke-linecap="butt" d="m254.83891 148.48384l169.95274 0l0 55.622055l-169.95274 0z" fill-rule="evenodd"/><path fill="#000000" fill-opacity="0.0" d="m257.8787 160.56277l163.874 0l0 31.464554l-163.874 0z" fill-rule="evenodd"/><path fill="#000000" d="m293.56323 169.90256q1.828125 0 2.90625 1.0q1.09375 0.984375 1.09375 2.9375q0 1.953125 -1.09375 2.9375q-1.078125 0.984375 -2.78125 0.984375l-4.28125 0l0 5.453125l-1.765625 0l0 -13.3125l5.921875 0zm-0.484375 6.375q1.265625 0 1.984375 -0.59375q0.734375 -0.609375 0.734375 -1.84375q0 -1.234375 -0.71875 -1.84375q-0.71875 -0.609375 -2.109375 -0.609375l-3.5625 0l0 4.890625l3.671875 0zm9.782318 -2.921875q1.96875 0 2.78125 0.703125q0.828125 0.6875 0.828125 1.875q0 5.015625 0 5.5625q0 0.546875 0.5 0.546875q0.109375 0 0.234375 -0.03125q0.140625 -0.03125 0.25 -0.0625l0 1.234375q-0.21875 0.125 -0.5 0.1875q-0.28125 0.078125 -0.625 0.078125q-0.65625 0 -1.0 -0.375q-0.34375 -0.375 -0.34375 -1.125q-0.640625 0.75 -1.5 1.125q-0.84375 0.375 -1.90625 0.375q-1.484375 0 -2.34375 -0.703125q-0.84375 -0.71875 -0.84375 -2.015625q0 -1.296875 0.828125 -2.046875q0.828125 -0.765625 3.90625 -1.15625q1.03125 -0.140625 1.390625 -0.390625q0.375 -0.265625 0.375 -0.796875q0 -0.796875 -0.515625 -1.1875q-0.5 -0.40625 -1.625 -0.40625q-1.171875 0 -1.765625 0.453125q-0.59375 0.4375 -0.640625 1.375l-1.578125 0q0.078125 -1.609375 1.125 -2.40625q1.0625 -0.8125 2.96875 -0.8125zm-2.796875 7.265625q0 0.671875 0.484375 1.046875q0.5 0.375 1.390625 0.375q1.34375 0 2.140625 -0.65625q0.796875 -0.671875 0.796875 -1.5l0 -1.65625q-0.390625 0.28125 -1.03125 0.390625q-0.640625 0.09375 -1.703125 0.234375q-1.046875 0.15625 -1.5625 0.578125q-0.515625 0.421875 -0.515625 1.1875zm13.676697 -7.28125q0.046875 0 0.09375 0q0.046875 0 0.125 0.015625l0 1.671875q-1.796875 0 -2.65625 0.953125q-0.84375 0.9375 -0.84375 2.921875l0 4.3125l-1.578125 0l0 -9.640625l1.484375 0l0 2.03125l0.046875 0q0.546875 -1.15625 1.359375 -1.703125q0.828125 -0.5625 1.96875 -0.5625zm3.087677 -3.4375l0 7.890625l4.40625 -4.21875l2.125 0l-3.828125 3.5l4.109375 6.140625l-2.015625 0l-3.3125 -5.03125l-1.484375 1.375l0 3.65625l-1.59375 0l0 -13.3125l1.59375 0zm9.68338 0l0 1.9375l-1.59375 0l0 -1.9375l1.59375 0zm0 3.671875l0 9.640625l-1.59375 0l0 -9.640625l1.59375 0zm7.1292114 -0.21875q1.75 0 2.53125 0.890625q0.796875 0.890625 0.796875 2.546875l0 6.421875l-1.59375 0l0 -6.59375q0 -0.8125 -0.53125 -1.34375q-0.515625 -0.53125 -1.4375 -0.53125q-1.34375 0 -2.09375 0.828125q-0.75 0.8125 -0.75 2.125l0 5.515625l-1.59375 0l0 -9.640625l1.5 0l0 1.53125l0.03125 0q0.53125 -0.90625 1.296875 -1.328125q0.78125 -0.421875 1.84375 -0.421875zm9.641327 0q1.0 0 1.734375 0.4375q0.75 0.4375 1.140625 1.15625l0.03125 0l0 -1.375l1.484375 0l0 8.921875q0 2.265625 -1.09375 3.453125q-1.09375 1.1875 -3.375 1.1875q-1.65625 0 -2.796875 -0.734375q-1.125 -0.734375 -1.203125 -2.109375l1.578125 0q0.046875 0.75 0.796875 1.15625q0.75 0.421875 1.703125 0.421875q1.40625 0 2.15625 -0.9375q0.75 -0.921875 0.75 -2.75l0 -0.609375l-0.046875 0q-0.375 0.796875 -1.1875 1.28125q-0.796875 0.46875 -1.828125 0.46875q-1.953125 0 -3.125 -1.34375q-1.171875 -1.359375 -1.171875 -3.53125q0 -2.21875 1.171875 -3.65625q1.171875 -1.4375 3.28125 -1.4375zm-2.78125 4.890625q0 1.71875 0.71875 2.703125q0.734375 0.984375 2.015625 0.984375q1.3125 0 2.078125 -1.015625q0.78125 -1.015625 0.78125 -2.71875q0 -1.546875 -0.71875 -2.5q-0.71875 -0.953125 -2.03125 -0.953125q-1.328125 0 -2.09375 0.953125q-0.75 0.953125 -0.75 2.546875zm18.052338 -8.5q0.203125 0 0.515625 0.046875q0.328125 0.046875 0.515625 0.109375l0 1.375q-0.171875 -0.0625 -0.4375 -0.09375q-0.265625 -0.03125 -0.453125 -0.03125q-0.65625 0 -0.9375 0.265625q-0.265625 0.265625 -0.265625 0.765625l0 1.390625l1.859375 0l0 1.390625l-1.859375 0l0 8.25l-1.59375 0l0 -8.25l-1.609375 0l0 -1.390625l1.609375 0l0 -1.515625q0 -1.0625 0.671875 -1.6875q0.671875 -0.625 1.984375 -0.625zm4.375 0.15625l0 1.9375l-1.59375 0l0 -1.9375l1.59375 0zm0 3.671875l0 9.640625l-1.59375 0l0 -9.640625l1.59375 0zm6.649536 -0.21875q1.75 0 2.53125 0.890625q0.796875 0.890625 0.796875 2.546875l0 6.421875l-1.59375 0l0 -6.59375q0 -0.8125 -0.53125 -1.34375q-0.515625 -0.53125 -1.4375 -0.53125q-1.34375 0 -2.09375 0.828125q-0.75 0.8125 -0.75 2.125l0 5.515625l-1.59375 0l0 -9.640625l1.5 0l0 1.53125l0.03125 0q0.53125 -0.90625 1.296875 -1.328125q0.78125 -0.421875 1.84375 -0.421875zm9.719482 0q2.078125 0 3.21875 1.5q1.15625 1.484375 1.15625 3.828125l0 0.1875l-7.234375 0l0 0.109375q0 1.390625 0.796875 2.234375q0.8125 0.828125 2.21875 0.828125q1.046875 0 1.671875 -0.484375q0.625 -0.5 0.828125 -1.40625l1.5625 0q-0.328125 1.609375 -1.40625 2.453125q-1.078125 0.84375 -2.71875 0.84375q-1.515625 0 -2.578125 -0.6875q-1.046875 -0.6875 -1.546875 -1.90625q-0.5 -1.234375 -0.5 -2.515625q0 -2.140625 1.28125 -3.5625q1.296875 -1.421875 3.25 -1.421875zm-2.859375 4.109375l5.546875 0q-0.078125 -1.171875 -0.859375 -1.9375q-0.765625 -0.78125 -1.9375 -0.78125q-1.09375 0 -1.875 0.734375q-0.765625 0.734375 -0.875 1.984375zm12.082947 -4.109375q1.9375 0 2.890625 0.75q0.953125 0.75 1.03125 2.265625l-1.578125 0l0 -0.03125q-0.0625 -0.765625 -0.671875 -1.171875q-0.609375 -0.421875 -1.5625 -0.421875q-0.953125 0 -1.515625 0.328125q-0.546875 0.3125 -0.546875 0.90625q0 0.515625 0.484375 0.859375q0.5 0.328125 1.484375 0.546875l1.484375 0.328125q1.40625 0.3125 2.125 0.953125q0.734375 0.640625 0.734375 1.734375q0 1.421875 -1.109375 2.234375q-1.09375 0.8125 -2.984375 0.8125q-1.859375 0 -2.953125 -0.828125q-1.078125 -0.84375 -1.140625 -2.453125l1.59375 0q0.03125 0.90625 0.703125 1.390625q0.6875 0.484375 1.875 0.484375q1.15625 0 1.75 -0.359375q0.59375 -0.375 0.59375 -1.078125q0 -0.65625 -0.59375 -1.03125q-0.59375 -0.375 -2.40625 -0.734375q-1.828125 -0.359375 -2.578125 -1.015625q-0.734375 -0.65625 -0.734375 -1.734375q0 -1.265625 1.03125 -2.0q1.03125 -0.734375 2.59375 -0.734375z" fill-rule="nonzero"/><path fill="#000000" fill-opacity="0.0" d="m424.79428 104.211334l62.86615 28.53543" fill-rule="evenodd"/><path stroke="#000000" stroke-width="2.0" stroke-linejoin="round" stroke-linecap="butt" d="m424.79428 104.211334l51.939148 23.575577" fill-rule="evenodd"/><path fill="#000000" stroke="#000000" stroke-width="2.0" stroke-linecap="butt" d="m475.368 130.795l9.630035 0.7433014l-6.899231 -6.7594757z" fill-rule="evenodd"/><path fill="#000000" fill-opacity="0.0" d="m424.79166 176.29486l62.86615 -43.55905" fill-rule="evenodd"/><path stroke="#000000" stroke-width="2.0" stroke-linejoin="round" stroke-linecap="butt" d="m424.79166 176.29486l53.002502 -36.724686" fill-rule="evenodd"/><path fill="#000000" stroke="#000000" stroke-width="2.0" stroke-linecap="butt" d="m479.6756 142.28554l5.5789185 -7.8845367l-9.341766 2.4538422z" fill-rule="evenodd"/></g></svg>