<?xml version="1.0" encoding="UTF-8" standalone="no"?><svg xmlns="http://www.w3.org/2000/svg" xmlns:xlink="http://www.w3.org/1999/xlink" contentScriptType="application/ecmascript" contentStyleType="text/css" height="1309px" preserveAspectRatio="none" style="width:783px;height:1309px;" version="1.1" viewBox="0 0 783 1309" width="783px" zoomAndPan="magnify"><defs><filter height="300%" id="f1xjt534b73xtu" width="300%" x="-1" y="-1"><feGaussianBlur result="blurOut" stdDeviation="2.0"/><feColorMatrix in="blurOut" result="blurOut2" type="matrix" values="0 0 0 0 0 0 0 0 0 0 0 0 0 0 0 0 0 0 .4 0"/><feOffset dx="4.0" dy="4.0" in="blurOut2" result="blurOut3"/><feBlend in="SourceGraphic" in2="blurOut3" mode="normal"/></filter></defs><g><line style="stroke: #A80036; stroke-width: 1.0; stroke-dasharray: 5.0,5.0;" x1="111" x2="111" y1="38.2969" y2="1269.2734"/><line style="stroke: #A80036; stroke-width: 1.0; stroke-dasharray: 5.0,5.0;" x1="348" x2="348" y1="38.2969" y2="1269.2734"/><line style="stroke: #A80036; stroke-width: 1.0; stroke-dasharray: 5.0,5.0;" x1="571.5" x2="571.5" y1="38.2969" y2="1269.2734"/><line style="stroke: #A80036; stroke-width: 1.0; stroke-dasharray: 5.0,5.0;" x1="675.5" x2="675.5" y1="38.2969" y2="1269.2734"/><rect fill="#FEFECE" filter="url(#f1xjt534b73xtu)" height="30.2969" style="stroke: #A80036; stroke-width: 1.5;" width="45" x="87" y="3"/><text fill="#000000" font-family="sans-serif" font-size="14" lengthAdjust="spacingAndGlyphs" textLength="31" x="94" y="22.9951">user</text><rect fill="#FEFECE" filter="url(#f1xjt534b73xtu)" height="30.2969" style="stroke: #A80036; stroke-width: 1.5;" width="45" x="87" y="1268.2734"/><text fill="#000000" font-family="sans-serif" font-size="14" lengthAdjust="spacingAndGlyphs" textLength="31" x="94" y="1288.2686">user</text><rect fill="#FEFECE" filter="url(#f1xjt534b73xtu)" height="30.2969" style="stroke: #A80036; stroke-width: 1.5;" width="63" x="315" y="3"/><text fill="#000000" font-family="sans-serif" font-size="14" lengthAdjust="spacingAndGlyphs" textLength="49" x="322" y="22.9951">service</text><rect fill="#FEFECE" filter="url(#f1xjt534b73xtu)" height="30.2969" style="stroke: #A80036; stroke-width: 1.5;" width="63" x="315" y="1268.2734"/><text fill="#000000" font-family="sans-serif" font-size="14" lengthAdjust="spacingAndGlyphs" textLength="49" x="322" y="1288.2686">service</text><rect fill="#FEFECE" filter="url(#f1xjt534b73xtu)" height="30.2969" style="stroke: #A80036; stroke-width: 1.5;" width="84" x="527.5" y="3"/><text fill="#000000" font-family="sans-serif" font-size="14" lengthAdjust="spacingAndGlyphs" textLength="70" x="534.5" y="22.9951">data store</text><rect fill="#FEFECE" filter="url(#f1xjt534b73xtu)" height="30.2969" style="stroke: #A80036; stroke-width: 1.5;" width="84" x="527.5" y="1268.2734"/><text fill="#000000" font-family="sans-serif" font-size="14" lengthAdjust="spacingAndGlyphs" textLength="70" x="534.5" y="1288.2686">data store</text><rect fill="#FEFECE" filter="url(#f1xjt534b73xtu)" height="30.2969" style="stroke: #A80036; stroke-width: 1.5;" width="96" x="625.5" y="3"/><text fill="#000000" font-family="sans-serif" font-size="14" lengthAdjust="spacingAndGlyphs" textLength="82" x="632.5" y="22.9951">GOV.UK Pay</text><rect fill="#FEFECE" filter="url(#f1xjt534b73xtu)" height="30.2969" style="stroke: #A80036; stroke-width: 1.5;" width="96" x="625.5" y="1268.2734"/><text fill="#000000" font-family="sans-serif" font-size="14" lengthAdjust="spacingAndGlyphs" textLength="82" x="632.5" y="1288.2686">GOV.UK Pay</text><polygon fill="#A80036" points="336.5,65.4297,346.5,69.4297,336.5,73.4297,340.5,69.4297" style="stroke: #A80036; stroke-width: 1.0;"/><line style="stroke: #A80036; stroke-width: 1.0;" x1="111.5" x2="342.5" y1="69.4297" y2="69.4297"/><text fill="#000000" font-family="sans-serif" font-size="13" lengthAdjust="spacingAndGlyphs" textLength="74" x="118.5" y="64.3638">visit service</text><path d="M20,82.4297 L20,107.4297 L199,107.4297 L199,92.4297 L189,82.4297 L20,82.4297 " fill="#FBFB77" filter="url(#f1xjt534b73xtu)" style="stroke: #A80036; stroke-width: 1.0;"/><path d="M189,82.4297 L189,92.4297 L199,92.4297 L189,82.4297 " fill="#FBFB77" style="stroke: #A80036; stroke-width: 1.0;"/><text fill="#000000" font-family="sans-serif" font-size="13" lengthAdjust="spacingAndGlyphs" textLength="158" x="26" y="99.4966">click "Buy fishing license"</text><polygon fill="#A80036" points="336.5,133.6953,346.5,137.6953,336.5,141.6953,340.5,137.6953" style="stroke: #A80036; stroke-width: 1.0;"/><line style="stroke: #A80036; stroke-width: 1.0;" x1="111.5" x2="342.5" y1="137.6953" y2="137.6953"/><text fill="#000000" font-family="sans-serif" font-size="13" lengthAdjust="spacingAndGlyphs" textLength="65" x="118.5" y="132.6294">POST /buy</text><line style="stroke: #A80036; stroke-width: 1.0;" x1="348.5" x2="390.5" y1="166.8281" y2="166.8281"/><line style="stroke: #A80036; stroke-width: 1.0;" x1="390.5" x2="390.5" y1="166.8281" y2="179.8281"/><line style="stroke: #A80036; stroke-width: 1.0;" x1="349.5" x2="390.5" y1="179.8281" y2="179.8281"/><polygon fill="#A80036" points="359.5,175.8281,349.5,179.8281,359.5,183.8281,355.5,179.8281" style="stroke: #A80036; stroke-width: 1.0;"/><text fill="#000000" font-family="sans-serif" font-size="13" lengthAdjust="spacingAndGlyphs" textLength="82" x="355.5" y="161.7622">start session</text><path d="M270,192.8281 L270,232.8281 L422,232.8281 L422,202.8281 L412,192.8281 L270,192.8281 " fill="#FBFB77" filter="url(#f1xjt534b73xtu)" style="stroke: #A80036; stroke-width: 1.0;"/><path d="M412,192.8281 L412,202.8281 L422,202.8281 L412,192.8281 " fill="#FBFB77" style="stroke: #A80036; stroke-width: 1.0;"/><text fill="#000000" font-family="sans-serif" font-size="13" lengthAdjust="spacingAndGlyphs" textLength="103" x="276" y="209.895">call GOV.UK Pay</text><text fill="#000000" font-family="sans-serif" font-size="13" lengthAdjust="spacingAndGlyphs" textLength="131" x="276" y="225.0278">to create a payment</text><polygon fill="#A80036" points="663.5,334.8906,673.5,338.8906,663.5,342.8906,667.5,338.8906" style="stroke: #A80036; stroke-width: 1.0;"/><line style="stroke: #A80036; stroke-width: 1.0;" x1="348.5" x2="669.5" y1="338.8906" y2="338.8906"/><text fill="#000000" font-family="sans-serif" font-size="13" lengthAdjust="spacingAndGlyphs" textLength="137" x="355.5" y="258.1606">POST /v1/payments {</text><text fill="#000000" font-family="sans-serif" font-size="13" lengthAdjust="spacingAndGlyphs" textLength="74" x="363.5" y="273.2935">description,</text><text fill="#000000" font-family="sans-serif" font-size="13" lengthAdjust="spacingAndGlyphs" textLength="54" x="363.5" y="288.4263">amount,</text><text fill="#000000" font-family="sans-serif" font-size="13" lengthAdjust="spacingAndGlyphs" textLength="62" x="363.5" y="303.5591">return_url</text><text fill="#000000" font-family="sans-serif" font-size="13" lengthAdjust="spacingAndGlyphs" textLength="61" x="363.5" y="318.6919">reference</text><text fill="#000000" font-family="sans-serif" font-size="13" lengthAdjust="spacingAndGlyphs" textLength="8" x="355.5" y="333.8247">}</text><polygon fill="#A80036" points="359.5,364.0234,349.5,368.0234,359.5,372.0234,355.5,368.0234" style="stroke: #A80036; stroke-width: 1.0;"/><line style="stroke: #A80036; stroke-width: 1.0; stroke-dasharray: 2.0,2.0;" x1="353.5" x2="674.5" y1="368.0234" y2="368.0234"/><text fill="#000000" font-family="sans-serif" font-size="13" lengthAdjust="spacingAndGlyphs" textLength="281" x="365.5" y="362.9575">201 CREATED {... payment_id: next_url: ... }</text><path d="M247,381.0234 L247,421.0234 L445,421.0234 L445,391.0234 L435,381.0234 L247,381.0234 " fill="#FBFB77" filter="url(#f1xjt534b73xtu)" style="stroke: #A80036; stroke-width: 1.0;"/><path d="M435,381.0234 L435,391.0234 L445,391.0234 L435,381.0234 " fill="#FBFB77" style="stroke: #A80036; stroke-width: 1.0;"/><text fill="#000000" font-family="sans-serif" font-size="13" lengthAdjust="spacingAndGlyphs" textLength="177" x="253" y="398.0903">extract the payment_id and</text><text fill="#000000" font-family="sans-serif" font-size="13" lengthAdjust="spacingAndGlyphs" textLength="173" x="253" y="413.2231">next_url from the response</text><polygon fill="#A80036" points="559.5,462.5547,569.5,466.5547,559.5,470.5547,563.5,466.5547" style="stroke: #A80036; stroke-width: 1.0;"/><line style="stroke: #A80036; stroke-width: 1.0;" x1="348.5" x2="565.5" y1="466.5547" y2="466.5547"/><text fill="#000000" font-family="sans-serif" font-size="13" lengthAdjust="spacingAndGlyphs" textLength="127" x="355.5" y="446.356">store payment_id in</text><text fill="#000000" font-family="sans-serif" font-size="13" lengthAdjust="spacingAndGlyphs" textLength="167" x="355.5" y="461.4888">list of incomplete journeys</text><polygon fill="#A80036" points="359.5,491.6875,349.5,495.6875,359.5,499.6875,355.5,495.6875" style="stroke: #A80036; stroke-width: 1.0;"/><line style="stroke: #A80036; stroke-width: 1.0; stroke-dasharray: 2.0,2.0;" x1="353.5" x2="570.5" y1="495.6875" y2="495.6875"/><text fill="#000000" font-family="sans-serif" font-size="13" lengthAdjust="spacingAndGlyphs" textLength="65" x="365.5" y="490.6216">journey_id</text><line style="stroke: #A80036; stroke-width: 1.0;" x1="348.5" x2="390.5" y1="524.8203" y2="524.8203"/><line style="stroke: #A80036; stroke-width: 1.0;" x1="390.5" x2="390.5" y1="524.8203" y2="537.8203"/><line style="stroke: #A80036; stroke-width: 1.0;" x1="349.5" x2="390.5" y1="537.8203" y2="537.8203"/><polygon fill="#A80036" points="359.5,533.8203,349.5,537.8203,359.5,541.8203,355.5,537.8203" style="stroke: #A80036; stroke-width: 1.0;"/><text fill="#000000" font-family="sans-serif" font-size="13" lengthAdjust="spacingAndGlyphs" textLength="209" x="355.5" y="519.7544">record journey_id in user session</text><polygon fill="#A80036" points="122.5,578.0859,112.5,582.0859,122.5,586.0859,118.5,582.0859" style="stroke: #A80036; stroke-width: 1.0;"/><line style="stroke: #A80036; stroke-width: 1.0; stroke-dasharray: 2.0,2.0;" x1="116.5" x2="347.5" y1="582.0859" y2="582.0859"/><text fill="#000000" font-family="sans-serif" font-size="13" lengthAdjust="spacingAndGlyphs" textLength="149" x="128.5" y="561.8872">302 redirect to next_url</text><text fill="#000000" font-family="sans-serif" font-size="13" lengthAdjust="spacingAndGlyphs" textLength="213" x="128.5" y="577.02">(http header sets session cookie)</text><path d="M8,595.0859 L8,635.0859 L211,635.0859 L211,605.0859 L201,595.0859 L8,595.0859 " fill="#FBFB77" filter="url(#f1xjt534b73xtu)" style="stroke: #A80036; stroke-width: 1.0;"/><path d="M201,595.0859 L201,605.0859 L211,605.0859 L201,595.0859 " fill="#FBFB77" style="stroke: #A80036; stroke-width: 1.0;"/><text fill="#000000" font-family="sans-serif" font-size="13" lengthAdjust="spacingAndGlyphs" textLength="182" x="14" y="612.1528">user's browser automatically</text><text fill="#000000" font-family="sans-serif" font-size="13" lengthAdjust="spacingAndGlyphs" textLength="120" x="14" y="627.2856">follows the redirect</text><polygon fill="#A80036" points="663.5,661.4844,673.5,665.4844,663.5,669.4844,667.5,665.4844" style="stroke: #A80036; stroke-width: 1.0;"/><line style="stroke: #A80036; stroke-width: 1.0;" x1="111.5" x2="669.5" y1="665.4844" y2="665.4844"/><text fill="#000000" font-family="sans-serif" font-size="13" lengthAdjust="spacingAndGlyphs" textLength="112" x="118.5" y="660.4185">enter card details</text><path d="M25,678.4844 L25,718.4844 L193,718.4844 L193,688.4844 L183,678.4844 L25,678.4844 " fill="#FBFB77" filter="url(#f1xjt534b73xtu)" style="stroke: #A80036; stroke-width: 1.0;"/><path d="M183,678.4844 L183,688.4844 L193,688.4844 L183,678.4844 " fill="#FBFB77" style="stroke: #A80036; stroke-width: 1.0;"/><text fill="#000000" font-family="sans-serif" font-size="13" lengthAdjust="spacingAndGlyphs" textLength="133" x="31" y="695.5513">at this point the user</text><text fill="#000000" font-family="sans-serif" font-size="13" lengthAdjust="spacingAndGlyphs" textLength="147" x="31" y="710.6841">abandons their journey</text><path d="M309,732.75 L309,757.75 L714,757.75 L714,742.75 L704,732.75 L309,732.75 " fill="#FBFB77" filter="url(#f1xjt534b73xtu)" style="stroke: #A80036; stroke-width: 1.0;"/><path d="M704,732.75 L704,742.75 L714,742.75 L704,732.75 " fill="#FBFB77" style="stroke: #A80036; stroke-width: 1.0;"/><text fill="#000000" font-family="sans-serif" font-size="13" lengthAdjust="spacingAndGlyphs" textLength="118" x="446.25" y="749.8169">90 minutes pass...</text><line style="stroke: #A80036; stroke-width: 1.0;" x1="675.5" x2="717.5" y1="803.1484" y2="803.1484"/><line style="stroke: #A80036; stroke-width: 1.0;" x1="717.5" x2="717.5" y1="803.1484" y2="816.1484"/><line style="stroke: #A80036; stroke-width: 1.0;" x1="676.5" x2="717.5" y1="816.1484" y2="816.1484"/><polygon fill="#A80036" points="686.5,812.1484,676.5,816.1484,686.5,820.1484,682.5,816.1484" style="stroke: #A80036; stroke-width: 1.0;"/><text fill="#000000" font-family="sans-serif" font-size="13" lengthAdjust="spacingAndGlyphs" textLength="89" x="682.5" y="782.9497">times out and</text><text fill="#000000" font-family="sans-serif" font-size="13" lengthAdjust="spacingAndGlyphs" textLength="74" x="686.5" y="798.0825">is cancelled</text><path d="M272,829.1484 L272,854.1484 L421,854.1484 L421,839.1484 L411,829.1484 L272,829.1484 " fill="#FBFB77" filter="url(#f1xjt534b73xtu)" style="stroke: #A80036; stroke-width: 1.0;"/><path d="M411,829.1484 L411,839.1484 L421,839.1484 L411,829.1484 " fill="#FBFB77" style="stroke: #A80036; stroke-width: 1.0;"/><text fill="#000000" font-family="sans-serif" font-size="13" lengthAdjust="spacingAndGlyphs" textLength="128" x="278" y="846.2153">more time passes...</text><line style="stroke: #A80036; stroke-width: 1.0;" x1="348.5" x2="390.5" y1="884.4141" y2="884.4141"/><line style="stroke: #A80036; stroke-width: 1.0;" x1="390.5" x2="390.5" y1="884.4141" y2="897.4141"/><line style="stroke: #A80036; stroke-width: 1.0;" x1="349.5" x2="390.5" y1="897.4141" y2="897.4141"/><polygon fill="#A80036" points="359.5,893.4141,349.5,897.4141,359.5,901.4141,355.5,897.4141" style="stroke: #A80036; stroke-width: 1.0;"/><text fill="#000000" font-family="sans-serif" font-size="13" lengthAdjust="spacingAndGlyphs" textLength="206" x="355.5" y="879.3481">timer triggers mop-up job to run</text><path d="M353,910.4141 L353,995.4141 L557,995.4141 L557,920.4141 L547,910.4141 L353,910.4141 " fill="#FBFB77" filter="url(#f1xjt534b73xtu)" style="stroke: #A80036; stroke-width: 1.0;"/><path d="M547,910.4141 L547,920.4141 L557,920.4141 L547,910.4141 " fill="#FBFB77" style="stroke: #A80036; stroke-width: 1.0;"/><text fill="#000000" font-family="sans-serif" font-size="13" lengthAdjust="spacingAndGlyphs" textLength="183" x="359" y="927.481">we don't want to do anything</text><text fill="#000000" font-family="sans-serif" font-size="13" lengthAdjust="spacingAndGlyphs" textLength="183" x="359" y="942.6138">with payment journeys which</text><text fill="#000000" font-family="sans-serif" font-size="13" lengthAdjust="spacingAndGlyphs" textLength="182" x="359" y="957.7466">might still be in flight, so use</text><text fill="#000000" font-family="sans-serif" font-size="13" lengthAdjust="spacingAndGlyphs" textLength="181" x="359" y="972.8794">a generous cut-off threshold</text><text fill="#000000" font-family="sans-serif" font-size="13" lengthAdjust="spacingAndGlyphs" textLength="64" x="359" y="988.0122">of 3 hours</text><polygon fill="#A80036" points="559.5,1037.3438,569.5,1041.3438,559.5,1045.3438,563.5,1041.3438" style="stroke: #A80036; stroke-width: 1.0;"/><line style="stroke: #A80036; stroke-width: 1.0;" x1="348.5" x2="565.5" y1="1041.3438" y2="1041.3438"/><text fill="#000000" font-family="sans-serif" font-size="13" lengthAdjust="spacingAndGlyphs" textLength="174" x="355.5" y="1021.145">find all incomplete journeys</text><text fill="#000000" font-family="sans-serif" font-size="13" lengthAdjust="spacingAndGlyphs" textLength="142" x="355.5" y="1036.2778">more than 3 hours old</text><path d="M480,1054.3438 L480,1094.3438 L658,1094.3438 L658,1064.3438 L648,1054.3438 L480,1054.3438 " fill="#FBFB77" filter="url(#f1xjt534b73xtu)" style="stroke: #A80036; stroke-width: 1.0;"/><path d="M648,1054.3438 L648,1064.3438 L658,1064.3438 L648,1054.3438 " fill="#FBFB77" style="stroke: #A80036; stroke-width: 1.0;"/><text fill="#000000" font-family="sans-serif" font-size="13" lengthAdjust="spacingAndGlyphs" textLength="147" x="486" y="1071.4106">there's one incomplete</text><text fill="#000000" font-family="sans-serif" font-size="13" lengthAdjust="spacingAndGlyphs" textLength="157" x="486" y="1086.5435">journey in the data store</text><polygon fill="#A80036" points="359.5,1120.7422,349.5,1124.7422,359.5,1128.7422,355.5,1124.7422" style="stroke: #A80036; stroke-width: 1.0;"/><line style="stroke: #A80036; stroke-width: 1.0; stroke-dasharray: 2.0,2.0;" x1="353.5" x2="570.5" y1="1124.7422" y2="1124.7422"/><text fill="#000000" font-family="sans-serif" font-size="13" lengthAdjust="spacingAndGlyphs" textLength="174" x="365.5" y="1119.6763">[{journey_id, payment_id}]</text><path d="M167,1137.7422 L167,1162.7422 L525,1162.7422 L525,1147.7422 L515,1137.7422 L167,1137.7422 " fill="#FBFB77" filter="url(#f1xjt534b73xtu)" style="stroke: #A80036; stroke-width: 1.0;"/><path d="M515,1137.7422 L515,1147.7422 L525,1147.7422 L515,1137.7422 " fill="#FBFB77" style="stroke: #A80036; stroke-width: 1.0;"/><text fill="#000000" font-family="sans-serif" font-size="13" lengthAdjust="spacingAndGlyphs" textLength="337" x="173" y="1154.8091">Call GOV.UK Pay to enquire about payment outcome</text><polygon fill="#A80036" points="663.5,1189.0078,673.5,1193.0078,663.5,1197.0078,667.5,1193.0078" style="stroke: #A80036; stroke-width: 1.0;"/><line style="stroke: #A80036; stroke-width: 1.0;" x1="348.5" x2="669.5" y1="1193.0078" y2="1193.0078"/><text fill="#000000" font-family="sans-serif" font-size="13" lengthAdjust="spacingAndGlyphs" textLength="217" x="355.5" y="1187.9419">GET /v1/payments/&lt;payment_id&gt;</text><polygon fill="#A80036" points="359.5,1218.1406,349.5,1222.1406,359.5,1226.1406,355.5,1222.1406" style="stroke: #A80036; stroke-width: 1.0;"/><line style="stroke: #A80036; stroke-width: 1.0; stroke-dasharray: 2.0,2.0;" x1="353.5" x2="674.5" y1="1222.1406" y2="1222.1406"/><text fill="#000000" font-family="sans-serif" font-size="13" lengthAdjust="spacingAndGlyphs" textLength="140" x="365.5" y="1217.0747">200 OK {status: FAIL}</text><polygon fill="#A80036" points="559.5,1247.2734,569.5,1251.2734,559.5,1255.2734,563.5,1251.2734" style="stroke: #A80036; stroke-width: 1.0;"/><line style="stroke: #A80036; stroke-width: 1.0;" x1="348.5" x2="565.5" y1="1251.2734" y2="1251.2734"/><text fill="#000000" font-family="sans-serif" font-size="13" lengthAdjust="spacingAndGlyphs" textLength="159" x="355.5" y="1246.2075">mark journey_id as failed</text><!--
@startuml
participant user
participant "service"
participant "data store" as db
participant "GOV.UK Pay" as pay

user->service: visit service
note over user: click "Buy fishing license"
user->service: POST /buy
service->service: start session
note over service: call GOV.UK Pay\nto create a payment
service -> pay: POST /v1/payments {\n  description,\n  amount,\n  return_url\n  reference\n}
pay - -> service: 201 CREATED {... payment_id: next_url: ... }
note over service: extract the payment_id and\nnext_url from the response
service->db: store payment_id in\nlist of incomplete journeys
db- ->service: journey_id
service->service: record journey_id in user session
service- ->user: 302 redirect to next_url\n(http header sets session cookie)
note over user: user's browser automatically\nfollows the redirect
user->pay: enter card details
note over user: at this point the user\nabandons their journey
note over service,pay: 90 minutes pass...
pay->pay: times out and\n is cancelled
note over service: more time passes...
service->service: timer triggers mop-up job to run
note right of service: we don't want to do anything\nwith payment journeys which\nmight still be in flight, so use\na generous cut-off threshold\nof 3 hours
service->db: find all incomplete journeys\nmore than 3 hours old
note over db: there's one incomplete\njourney in the data store
db- ->service: [{journey_id, payment_id}]
note over service: Call GOV.UK Pay to enquire about payment outcome
service->pay: GET /v1/payments/<payment_id>
pay- ->service: 200 OK {status: FAIL}
service->db: mark journey_id as failed
@enduml

PlantUML version 1.2018.14beta6(Unknown compile time)
(GPL source distribution)
Java Runtime: Java(TM) SE Runtime Environment
JVM: Java HotSpot(TM) 64-Bit Server VM
Java Version: 1.7.0_25-b15
Operating System: Linux
Default Encoding: UTF-8
Language: en
Country: US
--></g></svg>